<?xml version="1.0" encoding="UTF-8" standalone="no" ?>
<!DOCTYPE svg PUBLIC "-//W3C//DTD SVG 1.1//EN" "http://www.w3.org/Graphics/SVG/1.1/DTD/svg11.dtd">
<svg xmlns="http://www.w3.org/2000/svg" xmlns:xlink="http://www.w3.org/1999/xlink" version="1.1" width="400" height="200" viewBox="0 0 400 200" xml:space="preserve">
<desc>Created with Fabric.js 5.2.4</desc>
<defs>
</defs>
<rect x="0" y="0" width="100%" height="100%" fill="transparent"></rect>
<g transform="matrix(Infinity NaN NaN Infinity 0 0)" id="6d0fad98-858a-4072-b1cb-5dff983ff7be"  >
</g>
<g transform="matrix(1 0 0 1 200 100)" id="84f0c893-d841-40b4-83ef-c1b452c1cad6"  >
<rect style="stroke: none; stroke-width: 1; stroke-dasharray: none; stroke-linecap: butt; stroke-dashoffset: 0; stroke-linejoin: miter; stroke-miterlimit: 4; fill: rgb(0,0,0); fill-rule: nonzero; opacity: 1; visibility: hidden;" vector-effect="non-scaling-stroke"  x="-200" y="-100" rx="0" ry="0" width="400" height="200" />
</g>
<g transform="matrix(0 0 0 0 464.17 229.97)"  >
<g style=""   >
		<g transform="matrix(1.17 0 0 1.17 -99.5 51.63)"  >
<path style="stroke: none; stroke-width: 1; stroke-dasharray: none; stroke-linecap: butt; stroke-dashoffset: 0; stroke-linejoin: miter; stroke-miterlimit: 4; fill: rgb(255,255,255); fill-rule: nonzero; opacity: 1;" vector-effect="non-scaling-stroke"  transform=" translate(-50.5, -50)" d="M 29.5 25.5 C 32 25.5 34.1 23.4 34.1 20.9 C 34.1 18.4 32 16.299999999999997 29.5 16.299999999999997 C 27 16.299999999999997 24.9 18.4 24.9 20.9 C 24.9 23.4 27 25.5 29.5 25.5 z M 27 58 C 27 58.7 27.6 59.3 28.3 59.3 C 29 59.3 29.6 58.699999999999996 29.6 58 C 29.6 57.300000000000004 29 56.7 28.3 56.7 C 27.6 56.7 27 57.3 27 58 z M 36.2 31.3 C 37.300000000000004 31.3 38.1 30.400000000000002 38.1 29.400000000000002 C 38.1 28.3 37.2 27.500000000000004 36.2 27.500000000000004 C 35.1 27.500000000000004 34.300000000000004 28.400000000000002 34.300000000000004 29.400000000000002 C 34.3 30.4 35.1 31.3 36.2 31.3 z M 21.1 48.6 C 23.6 48.6 25.700000000000003 46.5 25.700000000000003 44 C 25.700000000000003 41.5 23.6 39.4 21.1 39.4 C 18.6 39.4 16.5 41.5 16.5 44 C 16.6 46.5 18.6 48.6 21.1 48.6 z M 14.5 37.8 C 15.6 37.8 16.4 36.9 16.4 35.9 C 16.4 34.8 15.499999999999998 34 14.499999999999998 34 C 13.399999999999999 34 12.599999999999998 34.9 12.599999999999998 35.9 C 12.6 37 13.4 37.8 14.5 37.8 z M 13.8 42 C 13.8 41.3 13.200000000000001 40.7 12.5 40.7 C 11.8 40.7 11.2 41.300000000000004 11.2 42 C 11.2 42.699999999999996 11.799999999999999 43.3 12.5 43.3 C 13.2 43.3 13.8 42.7 13.8 42 z M 19.9 31.2 C 21.7 31.2 23.099999999999998 29.8 23.099999999999998 28 C 23.099999999999998 26.2 21.7 24.8 19.9 24.8 C 18.099999999999998 24.8 16.7 26.2 16.7 28 C 16.7 29.8 18.1 31.2 19.9 31.2 z M 58.8 13.6 C 59.5 13.6 60.099999999999994 13 60.099999999999994 12.299999999999999 C 60.099999999999994 11.6 59.49999999999999 10.999999999999998 58.8 10.999999999999998 C 58.099999999999994 10.999999999999998 57.5 11.599999999999998 57.5 12.299999999999999 C 57.5 13 58.1 13.6 58.8 13.6 z M 23.8 57.5 C 23.8 54.4 21.3 51.9 18.200000000000003 51.9 C 15.100000000000003 51.9 12.600000000000003 54.4 12.600000000000003 57.5 C 12.600000000000003 60.6 15.100000000000003 63.1 18.200000000000003 63.1 C 21.3 63.1 23.8 60.6 23.8 57.5 z M 79.9 33.9 C 82.4 33.9 84.5 31.799999999999997 84.5 29.299999999999997 C 84.5 26.799999999999997 82.4 24.699999999999996 79.9 24.699999999999996 C 77.4 24.699999999999996 75.30000000000001 26.799999999999997 75.30000000000001 29.299999999999997 C 75.30000000000001 31.799999999999997 77.3 33.9 79.9 33.9 z M 69.6 65.5 C 69.6 67.3 71 68.7 72.8 68.7 C 74.6 68.7 76 67.3 76 65.5 C 76 63.7 74.6 62.3 72.8 62.3 C 71 62.3 69.6 63.7 69.6 65.5 z M 72.8 22.9 C 74.6 22.9 76 21.5 76 19.7 C 76 17.9 74.6 16.5 72.8 16.5 C 71 16.5 69.6 17.9 69.6 19.7 C 69.6 21.5 71 22.9 72.8 22.9 z M 65.7 31.2 C 67.5 31.2 68.9 29.8 68.9 28 C 68.9 26.2 67.5 24.8 65.7 24.8 C 63.900000000000006 24.8 62.5 26.2 62.5 28 C 62.5 29.8 63.9 31.2 65.7 31.2 z M 77.2 42.5 C 77.2 45.6 79.7 48.1 82.8 48.1 C 85.89999999999999 48.1 88.39999999999999 45.6 88.39999999999999 42.5 C 88.39999999999999 39.4 85.89999999999999 36.9 82.8 36.9 C 79.7 36.9 77.2 39.4 77.2 42.5 z M 74 42 C 74 41.3 73.4 40.7 72.7 40.7 C 72 40.7 71.4 41.300000000000004 71.4 42 C 71.4 42.699999999999996 72 43.3 72.7 43.3 C 73.4 43.3 74 42.7 74 42 z M 64.8 16.1 C 65.89999999999999 16.1 66.7 15.200000000000001 66.7 14.200000000000001 C 66.7 13.200000000000001 65.8 12.3 64.8 12.3 C 63.699999999999996 12.3 62.9 13.200000000000001 62.9 14.200000000000001 C 62.9 15.200000000000001 63.8 16.1 64.8 16.1 z M 70.8 37.8 C 71.89999999999999 37.8 72.7 36.9 72.7 35.9 C 72.7 34.8 71.8 34 70.8 34 C 69.8 34 68.89999999999999 34.9 68.89999999999999 35.9 C 68.9 37 69.8 37.8 70.8 37.8 z M 31.4 34.5 C 31.4 32.7 30 31.3 28.2 31.3 C 26.4 31.3 25 32.7 25 34.5 C 25 36.3 26.4 37.7 28.2 37.7 C 30 37.7 31.4 36.3 31.4 34.5 z M 64.8 68.7 C 63.699999999999996 68.7 62.9 69.60000000000001 62.9 70.60000000000001 C 62.9 71.7 63.8 72.50000000000001 64.8 72.50000000000001 C 65.89999999999999 72.50000000000001 66.7 71.60000000000001 66.7 70.60000000000001 C 66.7 69.6 65.9 68.7 64.8 68.7 z M 58.3 76.4 C 55.199999999999996 76.4 52.699999999999996 78.9 52.699999999999996 82 C 52.699999999999996 85.1 55.199999999999996 87.6 58.3 87.6 C 61.4 87.6 63.9 85.1 63.9 82 C 63.9 78.9 61.4 76.4 58.3 76.4 z M 71.5 74.5 C 69 74.5 66.9 76.6 66.9 79.1 C 66.9 81.6 69 83.69999999999999 71.5 83.69999999999999 C 74 83.69999999999999 76.1 81.6 76.1 79.1 C 76.1 76.6 74 74.5 71.5 74.5 z M 57.5 72.5 C 57.5 73.2 58.1 73.8 58.8 73.8 C 59.5 73.8 60.099999999999994 73.2 60.099999999999994 72.5 C 60.099999999999994 71.8 59.49999999999999 71.2 58.8 71.2 C 58.1 71.3 57.5 71.8 57.5 72.5 z M 88.5 56.7 C 87.8 56.7 87.2 57.300000000000004 87.2 58 C 87.2 58.699999999999996 87.8 59.3 88.5 59.3 C 89.2 59.3 89.8 58.699999999999996 89.8 58 C 89.8 57.300000000000004 89.1 56.7 88.5 56.7 z M 86.5 62.2 C 85.4 62.2 84.6 63.1 84.6 64.10000000000001 C 84.6 65.2 85.5 66.00000000000001 86.5 66.00000000000001 C 87.6 66.00000000000001 88.4 65.10000000000001 88.4 64.10000000000001 C 88.4 63 87.6 62.2 86.5 62.2 z M 56.2 25.5 C 58.7 25.5 60.800000000000004 23.4 60.800000000000004 20.9 C 60.800000000000004 18.4 58.7 16.299999999999997 56.2 16.299999999999997 C 53.7 16.299999999999997 51.6 18.4 51.6 20.9 C 51.6 23.4 53.7 25.5 56.2 25.5 z M 79.9 51.4 C 77.4 51.4 75.30000000000001 53.5 75.30000000000001 56 C 75.30000000000001 58.5 77.4 60.6 79.9 60.6 C 82.4 60.6 84.5 58.5 84.5 56 C 84.4 53.5 82.4 51.4 79.9 51.4 z M 21.1 66.1 C 18.6 66.1 16.5 68.19999999999999 16.5 70.69999999999999 C 16.5 73.19999999999999 18.6 75.29999999999998 21.1 75.29999999999998 C 23.6 75.29999999999998 25.700000000000003 73.19999999999999 25.700000000000003 70.69999999999999 C 25.700000000000003 68.19999999999999 23.7 66.1 21.1 66.1 z M 81.1 68.8 C 79.3 68.8 77.89999999999999 70.2 77.89999999999999 72 C 77.89999999999999 73.8 79.3 75.2 81.1 75.2 C 82.89999999999999 75.2 84.3 73.8 84.3 72 C 84.3 70.2 82.9 68.8 81.1 68.8 z M 30.2 62.2 C 29.099999999999998 62.2 28.3 63.1 28.3 64.10000000000001 C 28.3 65.2 29.2 66.00000000000001 30.2 66.00000000000001 C 31.2 66.00000000000001 32.1 65.10000000000001 32.1 64.10000000000001 C 32.1 63 31.2 62.2 30.2 62.2 z M 35.3 68.8 C 33.5 68.8 32.099999999999994 70.2 32.099999999999994 72 C 32.099999999999994 73.8 33.49999999999999 75.2 35.3 75.2 C 37.099999999999994 75.2 38.5 73.8 38.5 72 C 38.5 70.2 37.1 68.8 35.3 68.8 z M 36.2 83.9 C 35.1 83.9 34.300000000000004 84.80000000000001 34.300000000000004 85.80000000000001 C 34.300000000000004 86.80000000000001 35.2 87.70000000000002 36.2 87.70000000000002 C 37.300000000000004 87.70000000000002 38.1 86.80000000000001 38.1 85.80000000000001 C 38.1 84.80000000000001 37.2 83.9 36.2 83.9 z M 28.2 77.1 C 26.4 77.1 25 78.5 25 80.3 C 25 82.1 26.4 83.5 28.2 83.5 C 30 83.5 31.4 82.1 31.4 80.3 C 31.4 78.5 30 77.1 28.2 77.1 z M 41 27.5 C 41 28.2 41.6 28.8 42.3 28.8 C 43 28.8 43.599999999999994 28.2 43.599999999999994 27.5 C 43.599999999999994 26.8 42.99999999999999 26.2 42.3 26.2 C 41.5 26.2 41 26.8 41 27.5 z M 48.3 17.9 C 48.3 14.799999999999999 45.8 12.299999999999999 42.699999999999996 12.299999999999999 C 39.599999999999994 12.299999999999999 37.099999999999994 14.799999999999999 37.099999999999994 17.9 C 37.099999999999994 21 39.599999999999994 23.5 42.699999999999996 23.5 C 45.8 23.6 48.3 21.1 48.3 17.9 z M 42.2 86.4 C 41.5 86.4 40.900000000000006 87 40.900000000000006 87.7 C 40.900000000000006 88.4 41.50000000000001 89 42.2 89 C 42.900000000000006 89 43.5 88.4 43.5 87.7 C 43.5 87 42.9 86.4 42.2 86.4 z M 44.8 74.5 C 42.3 74.5 40.199999999999996 76.6 40.199999999999996 79.1 C 40.199999999999996 81.6 42.3 83.69999999999999 44.8 83.69999999999999 C 47.3 83.69999999999999 49.4 81.6 49.4 79.1 C 49.4 76.6 47.3 74.5 44.8 74.5 z" stroke-linecap="round" />
</g>
		<g transform="matrix(4 0 0 4 246.72 189.49)"  >
<path style="stroke: none; stroke-width: 1; stroke-dasharray: none; stroke-linecap: butt; stroke-dashoffset: 0; stroke-linejoin: miter; stroke-miterlimit: 4; fill: rgb(255,255,255); fill-rule: nonzero; opacity: 1;" vector-effect="non-scaling-stroke"  transform=" translate(-34.06, -12.56)" d="M 3.74 5.84 L 3.74 20 L 1.8200000000000003 20 L 1.8200000000000003 5.84 L 3.74 5.84 z M 10.974 10.28 C 12.040700000000001 10.28 12.8773 10.6 13.484 11.239999999999998 C 14.0907 11.879999999999997 14.40066 12.739999999999998 14.414 13.819999999999999 L 14.414 20 L 12.613999999999999 20 L 12.613999999999999 14.34 C 12.613999999999999 13.60666 12.424 13.0267 12.043999999999999 12.6 C 11.663999999999998 12.1733 11.133999999999999 11.959999999999999 10.453999999999999 11.959999999999999 C 9.613999999999999 11.959999999999999 8.963999999999999 12.239999999999998 8.504 12.799999999999999 C 8.044 13.36 7.814 14.106699999999998 7.814 15.04 L 7.814 20 L 6.014 20 L 6.014 10.52 L 7.814 10.52 L 7.814 11.98 L 7.854 11.98 C 8.10734 11.44666 8.51734 11.030000000000001 9.084 10.73 C 9.650659999999998 10.43 10.2807 10.280000000000001 10.974 10.280000000000001 z M 17.108 10.52 L 19.248 17.6 L 19.288 17.6 L 21.548000000000002 10.520000000000001 L 23.448 10.520000000000001 L 25.848 17.6 L 25.887999999999998 17.6 L 27.927999999999997 10.520000000000001 L 29.827999999999996 10.520000000000001 L 26.767999999999997 20 L 24.947999999999997 20 L 22.447999999999997 12.92 L 22.407999999999998 12.92 L 20.147999999999996 20 L 18.207999999999995 20 L 15.087999999999994 10.52 L 17.107999999999993 10.52 z M 34.842 10.28 C 36.2953 10.28 37.425399999999996 10.73664 38.232 11.649999999999999 C 39.0386 12.563359999999998 39.4487 13.819999999999999 39.461999999999996 15.419999999999998 L 39.461999999999996 15.919999999999998 L 31.861999999999995 15.919999999999998 C 31.861999999999995 16.69334 32.172 17.3433 32.791999999999994 17.869999999999997 C 33.41199999999999 18.396699999999996 34.168699999999994 18.666659999999997 35.062 18.679999999999996 C 36.04866 18.679999999999996 36.915299999999995 18.206659999999996 37.662 17.259999999999998 L 39.022 18.299999999999997 C 38.0087 19.593299999999996 36.608599999999996 20.24 34.821999999999996 20.24 C 33.3687 20.24 32.1986 19.77666 31.311999999999998 18.849999999999998 C 30.425399999999996 17.923339999999996 29.9687 16.726599999999998 29.941999999999997 15.259999999999998 C 29.941999999999997 13.846699999999998 30.398659999999996 12.669999999999998 31.311999999999998 11.729999999999999 C 32.22534 10.79 33.402 10.3067 34.842 10.28 z M 37.542 14.48 C 37.51534 13.58666 37.262 12.9033 36.782000000000004 12.43 C 36.30200000000001 11.9567 35.642 11.719999999999999 34.80200000000001 11.719999999999999 C 34.242000000000004 11.719999999999999 33.73870000000001 11.856659999999998 33.29200000000001 12.129999999999999 C 32.84530000000001 12.40334 32.495340000000006 12.75668 32.24200000000001 13.19 C 31.988660000000017 13.62332 31.862000000000013 14.053339999999999 31.862000000000013 14.48 L 37.542000000000016 14.48 z M 43.916000000000004 10.28 C 44.636 10.28 45.279300000000006 10.41338 45.846000000000004 10.68004 C 46.4127 10.9467 46.84930000000001 11.33336 47.156000000000006 11.84004 L 45.75600000000001 12.90004 C 45.222660000000005 12.273380000000001 44.57600000000001 11.960040000000001 43.81600000000001 11.960040000000001 C 43.36266000000001 11.960040000000001 42.98600000000001 12.06004 42.68600000000001 12.260040000000002 C 42.386 12.460040000000003 42.236000000000004 12.713380000000003 42.236000000000004 13.020040000000002 C 42.236000000000004 13.686700000000002 42.856 14.140040000000003 44.096000000000004 14.380040000000001 C 45.3093 14.606700000000002 46.166000000000004 14.940040000000002 46.666000000000004 15.380040000000001 C 47.166000000000004 15.82004 47.416000000000004 16.446740000000002 47.416000000000004 17.26004 C 47.416000000000004 18.18004 47.066 18.90334 46.36600000000001 19.430039999999998 C 45.66600000000001 19.956739999999996 44.72930000000001 20.226699999999997 43.556000000000004 20.240039999999997 C 42.676 20.240039999999997 41.95270000000001 20.103379999999998 41.386 19.830039999999997 C 40.8193 19.556699999999996 40.3293 19.133359999999996 39.916000000000004 18.560039999999997 L 41.276 17.440039999999996 C 41.996 18.186699999999995 42.7627 18.560039999999997 43.576 18.560039999999997 C 44.10934 18.560039999999997 44.56268 18.453379999999996 44.936 18.240039999999997 C 45.30932 18.026699999999998 45.496 17.733359999999998 45.496 17.36002 C 45.496 16.70668 44.896 16.25332 43.696000000000005 16.00002 C 42.362700000000004 15.73336 41.46600000000001 15.3767 41.00600000000001 14.930019999999999 C 40.54600000000001 14.483339999999998 40.31600000000001 13.906719999999998 40.31600000000001 13.200019999999999 C 40.31600000000001 12.320019999999998 40.65600000000001 11.616719999999999 41.33600000000001 11.090019999999999 C 42.01600000000001 10.56332 42.87600000000001 10.29336 43.91600000000001 10.280019999999999 z M 53.269999999999996 10.28 C 54.669999999999995 10.28 55.85659999999999 10.76338 56.83 11.729999999999999 C 57.8034 12.696619999999998 58.2967 13.873399999999998 58.309999999999995 15.259999999999998 C 58.309999999999995 16.659999999999997 57.823339999999995 17.833399999999997 56.849999999999994 18.779999999999998 C 55.876659999999994 19.726599999999998 54.68339999999999 20.213299999999997 53.269999999999996 20.24 C 51.8833 20.24 50.703399999999995 19.759999999999998 49.73 18.799999999999997 C 48.7566 17.839999999999996 48.256699999999995 16.659999999999997 48.23 15.259999999999998 C 48.23 13.886699999999998 48.713339999999995 12.719999999999999 49.68 11.759999999999998 C 50.646660000000004 10.799999999999997 51.8434 10.306699999999998 53.269999999999996 10.279999999999998 z M 50.15 15.26 C 50.15 16.23334 50.43664 17.0233 51.00998 17.63 C 51.58332 18.2367 52.33668 18.54666 53.26998 18.56 C 54.21664 18.56 54.96998 18.25666 55.529979999999995 17.65 C 56.08997999999999 17.043339999999997 56.376639999999995 16.246699999999997 56.389979999999994 15.259999999999998 C 56.389979999999994 14.286659999999998 56.10997999999999 13.496699999999997 55.54997999999999 12.889999999999997 C 54.98997999999999 12.283299999999997 54.22327999999999 11.973339999999997 53.249979999999994 11.959999999999997 C 52.30331999999999 11.959999999999997 51.54997999999999 12.273339999999997 50.989979999999996 12.899999999999997 C 50.42998 13.526659999999996 50.14997999999999 14.313299999999996 50.14997999999999 15.259999999999996 z M 61.604 4.880000000000001 L 61.604 20 L 59.804 20 L 59.804 4.880000000000001 L 61.604 4.880000000000001 z M 64.978 17.48 C 65.35134 17.48 65.66463999999999 17.61342 65.91798 17.88008 C 66.17132000000001 18.146739999999998 66.29798 18.4534 66.29798 18.80006 C 66.29798 19.186719999999998 66.16463999999999 19.50338 65.89797999999999 19.75004 C 65.63131999999999 19.996699999999997 65.32466 20.12004 64.978 20.12004 C 64.63134 20.12004 64.32468 19.99338 64.05802 19.74004 C 63.79136 19.486700000000003 63.65802 19.17336 63.65802 18.80002 C 63.65802 18.42668 63.79136 18.11334 64.05802 17.86 C 64.32468 17.606659999999998 64.63134 17.48 64.978 17.48 z" stroke-linecap="round" />
</g>
</g>
</g>
<g transform="matrix(0 0 0 0 464.17 229.97)"  >
<g style=""   >
		<g transform="matrix(1.17 0 0 1.17 -99.5 51.63)"  >
<path style="stroke: none; stroke-width: 1; stroke-dasharray: none; stroke-linecap: butt; stroke-dashoffset: 0; stroke-linejoin: miter; stroke-miterlimit: 4; fill: rgb(255,255,255); fill-rule: nonzero; opacity: 1;" vector-effect="non-scaling-stroke"  transform=" translate(-50.5, -50)" d="M 29.5 25.5 C 32 25.5 34.1 23.4 34.1 20.9 C 34.1 18.4 32 16.299999999999997 29.5 16.299999999999997 C 27 16.299999999999997 24.9 18.4 24.9 20.9 C 24.9 23.4 27 25.5 29.5 25.5 z M 27 58 C 27 58.7 27.6 59.3 28.3 59.3 C 29 59.3 29.6 58.699999999999996 29.6 58 C 29.6 57.300000000000004 29 56.7 28.3 56.7 C 27.6 56.7 27 57.3 27 58 z M 36.2 31.3 C 37.300000000000004 31.3 38.1 30.400000000000002 38.1 29.400000000000002 C 38.1 28.3 37.2 27.500000000000004 36.2 27.500000000000004 C 35.1 27.500000000000004 34.300000000000004 28.400000000000002 34.300000000000004 29.400000000000002 C 34.3 30.4 35.1 31.3 36.2 31.3 z M 21.1 48.6 C 23.6 48.6 25.700000000000003 46.5 25.700000000000003 44 C 25.700000000000003 41.5 23.6 39.4 21.1 39.4 C 18.6 39.4 16.5 41.5 16.5 44 C 16.6 46.5 18.6 48.6 21.1 48.6 z M 14.5 37.8 C 15.6 37.8 16.4 36.9 16.4 35.9 C 16.4 34.8 15.499999999999998 34 14.499999999999998 34 C 13.399999999999999 34 12.599999999999998 34.9 12.599999999999998 35.9 C 12.6 37 13.4 37.8 14.5 37.8 z M 13.8 42 C 13.8 41.3 13.200000000000001 40.7 12.5 40.7 C 11.8 40.7 11.2 41.300000000000004 11.2 42 C 11.2 42.699999999999996 11.799999999999999 43.3 12.5 43.3 C 13.2 43.3 13.8 42.7 13.8 42 z M 19.9 31.2 C 21.7 31.2 23.099999999999998 29.8 23.099999999999998 28 C 23.099999999999998 26.2 21.7 24.8 19.9 24.8 C 18.099999999999998 24.8 16.7 26.2 16.7 28 C 16.7 29.8 18.1 31.2 19.9 31.2 z M 58.8 13.6 C 59.5 13.6 60.099999999999994 13 60.099999999999994 12.299999999999999 C 60.099999999999994 11.6 59.49999999999999 10.999999999999998 58.8 10.999999999999998 C 58.099999999999994 10.999999999999998 57.5 11.599999999999998 57.5 12.299999999999999 C 57.5 13 58.1 13.6 58.8 13.6 z M 23.8 57.5 C 23.8 54.4 21.3 51.9 18.200000000000003 51.9 C 15.100000000000003 51.9 12.600000000000003 54.4 12.600000000000003 57.5 C 12.600000000000003 60.6 15.100000000000003 63.1 18.200000000000003 63.1 C 21.3 63.1 23.8 60.6 23.8 57.5 z M 79.9 33.9 C 82.4 33.9 84.5 31.799999999999997 84.5 29.299999999999997 C 84.5 26.799999999999997 82.4 24.699999999999996 79.9 24.699999999999996 C 77.4 24.699999999999996 75.30000000000001 26.799999999999997 75.30000000000001 29.299999999999997 C 75.30000000000001 31.799999999999997 77.3 33.9 79.9 33.9 z M 69.6 65.5 C 69.6 67.3 71 68.7 72.8 68.7 C 74.6 68.7 76 67.3 76 65.5 C 76 63.7 74.6 62.3 72.8 62.3 C 71 62.3 69.6 63.7 69.6 65.5 z M 72.8 22.9 C 74.6 22.9 76 21.5 76 19.7 C 76 17.9 74.6 16.5 72.8 16.5 C 71 16.5 69.6 17.9 69.6 19.7 C 69.6 21.5 71 22.9 72.8 22.9 z M 65.7 31.2 C 67.5 31.2 68.9 29.8 68.9 28 C 68.9 26.2 67.5 24.8 65.7 24.8 C 63.900000000000006 24.8 62.5 26.2 62.5 28 C 62.5 29.8 63.9 31.2 65.7 31.2 z M 77.2 42.5 C 77.2 45.6 79.7 48.1 82.8 48.1 C 85.89999999999999 48.1 88.39999999999999 45.6 88.39999999999999 42.5 C 88.39999999999999 39.4 85.89999999999999 36.9 82.8 36.9 C 79.7 36.9 77.2 39.4 77.2 42.5 z M 74 42 C 74 41.3 73.4 40.7 72.7 40.7 C 72 40.7 71.4 41.300000000000004 71.4 42 C 71.4 42.699999999999996 72 43.3 72.7 43.3 C 73.4 43.3 74 42.7 74 42 z M 64.8 16.1 C 65.89999999999999 16.1 66.7 15.200000000000001 66.7 14.200000000000001 C 66.7 13.200000000000001 65.8 12.3 64.8 12.3 C 63.699999999999996 12.3 62.9 13.200000000000001 62.9 14.200000000000001 C 62.9 15.200000000000001 63.8 16.1 64.8 16.1 z M 70.8 37.8 C 71.89999999999999 37.8 72.7 36.9 72.7 35.9 C 72.7 34.8 71.8 34 70.8 34 C 69.8 34 68.89999999999999 34.9 68.89999999999999 35.9 C 68.9 37 69.8 37.8 70.8 37.8 z M 31.4 34.5 C 31.4 32.7 30 31.3 28.2 31.3 C 26.4 31.3 25 32.7 25 34.5 C 25 36.3 26.4 37.7 28.2 37.7 C 30 37.7 31.4 36.3 31.4 34.5 z M 64.8 68.7 C 63.699999999999996 68.7 62.9 69.60000000000001 62.9 70.60000000000001 C 62.9 71.7 63.8 72.50000000000001 64.8 72.50000000000001 C 65.89999999999999 72.50000000000001 66.7 71.60000000000001 66.7 70.60000000000001 C 66.7 69.6 65.9 68.7 64.8 68.7 z M 58.3 76.4 C 55.199999999999996 76.4 52.699999999999996 78.9 52.699999999999996 82 C 52.699999999999996 85.1 55.199999999999996 87.6 58.3 87.6 C 61.4 87.6 63.9 85.1 63.9 82 C 63.9 78.9 61.4 76.4 58.3 76.4 z M 71.5 74.5 C 69 74.5 66.9 76.6 66.9 79.1 C 66.9 81.6 69 83.69999999999999 71.5 83.69999999999999 C 74 83.69999999999999 76.1 81.6 76.1 79.1 C 76.1 76.6 74 74.5 71.5 74.5 z M 57.5 72.5 C 57.5 73.2 58.1 73.8 58.8 73.8 C 59.5 73.8 60.099999999999994 73.2 60.099999999999994 72.5 C 60.099999999999994 71.8 59.49999999999999 71.2 58.8 71.2 C 58.1 71.3 57.5 71.8 57.5 72.5 z M 88.5 56.7 C 87.8 56.7 87.2 57.300000000000004 87.2 58 C 87.2 58.699999999999996 87.8 59.3 88.5 59.3 C 89.2 59.3 89.8 58.699999999999996 89.8 58 C 89.8 57.300000000000004 89.1 56.7 88.5 56.7 z M 86.5 62.2 C 85.4 62.2 84.6 63.1 84.6 64.10000000000001 C 84.6 65.2 85.5 66.00000000000001 86.5 66.00000000000001 C 87.6 66.00000000000001 88.4 65.10000000000001 88.4 64.10000000000001 C 88.4 63 87.6 62.2 86.5 62.2 z M 56.2 25.5 C 58.7 25.5 60.800000000000004 23.4 60.800000000000004 20.9 C 60.800000000000004 18.4 58.7 16.299999999999997 56.2 16.299999999999997 C 53.7 16.299999999999997 51.6 18.4 51.6 20.9 C 51.6 23.4 53.7 25.5 56.2 25.5 z M 79.9 51.4 C 77.4 51.4 75.30000000000001 53.5 75.30000000000001 56 C 75.30000000000001 58.5 77.4 60.6 79.9 60.6 C 82.4 60.6 84.5 58.5 84.5 56 C 84.4 53.5 82.4 51.4 79.9 51.4 z M 21.1 66.1 C 18.6 66.1 16.5 68.19999999999999 16.5 70.69999999999999 C 16.5 73.19999999999999 18.6 75.29999999999998 21.1 75.29999999999998 C 23.6 75.29999999999998 25.700000000000003 73.19999999999999 25.700000000000003 70.69999999999999 C 25.700000000000003 68.19999999999999 23.7 66.1 21.1 66.1 z M 81.1 68.8 C 79.3 68.8 77.89999999999999 70.2 77.89999999999999 72 C 77.89999999999999 73.8 79.3 75.2 81.1 75.2 C 82.89999999999999 75.2 84.3 73.8 84.3 72 C 84.3 70.2 82.9 68.8 81.1 68.8 z M 30.2 62.2 C 29.099999999999998 62.2 28.3 63.1 28.3 64.10000000000001 C 28.3 65.2 29.2 66.00000000000001 30.2 66.00000000000001 C 31.2 66.00000000000001 32.1 65.10000000000001 32.1 64.10000000000001 C 32.1 63 31.2 62.2 30.2 62.2 z M 35.3 68.8 C 33.5 68.8 32.099999999999994 70.2 32.099999999999994 72 C 32.099999999999994 73.8 33.49999999999999 75.2 35.3 75.2 C 37.099999999999994 75.2 38.5 73.8 38.5 72 C 38.5 70.2 37.1 68.8 35.3 68.8 z M 36.2 83.9 C 35.1 83.9 34.300000000000004 84.80000000000001 34.300000000000004 85.80000000000001 C 34.300000000000004 86.80000000000001 35.2 87.70000000000002 36.2 87.70000000000002 C 37.300000000000004 87.70000000000002 38.1 86.80000000000001 38.1 85.80000000000001 C 38.1 84.80000000000001 37.2 83.9 36.2 83.9 z M 28.2 77.1 C 26.4 77.1 25 78.5 25 80.3 C 25 82.1 26.4 83.5 28.2 83.5 C 30 83.5 31.4 82.1 31.4 80.3 C 31.4 78.5 30 77.1 28.2 77.1 z M 41 27.5 C 41 28.2 41.6 28.8 42.3 28.8 C 43 28.8 43.599999999999994 28.2 43.599999999999994 27.5 C 43.599999999999994 26.8 42.99999999999999 26.2 42.3 26.2 C 41.5 26.2 41 26.8 41 27.5 z M 48.3 17.9 C 48.3 14.799999999999999 45.8 12.299999999999999 42.699999999999996 12.299999999999999 C 39.599999999999994 12.299999999999999 37.099999999999994 14.799999999999999 37.099999999999994 17.9 C 37.099999999999994 21 39.599999999999994 23.5 42.699999999999996 23.5 C 45.8 23.6 48.3 21.1 48.3 17.9 z M 42.2 86.4 C 41.5 86.4 40.900000000000006 87 40.900000000000006 87.7 C 40.900000000000006 88.4 41.50000000000001 89 42.2 89 C 42.900000000000006 89 43.5 88.4 43.5 87.7 C 43.5 87 42.9 86.4 42.2 86.4 z M 44.8 74.5 C 42.3 74.5 40.199999999999996 76.6 40.199999999999996 79.1 C 40.199999999999996 81.6 42.3 83.69999999999999 44.8 83.69999999999999 C 47.3 83.69999999999999 49.4 81.6 49.4 79.1 C 49.4 76.6 47.3 74.5 44.8 74.5 z" stroke-linecap="round" />
</g>
		<g transform="matrix(4 0 0 4 246.72 189.49)"  >
<path style="stroke: none; stroke-width: 1; stroke-dasharray: none; stroke-linecap: butt; stroke-dashoffset: 0; stroke-linejoin: miter; stroke-miterlimit: 4; fill: rgb(255,255,255); fill-rule: nonzero; opacity: 1;" vector-effect="non-scaling-stroke"  transform=" translate(-34.06, -12.56)" d="M 3.74 5.84 L 3.74 20 L 1.8200000000000003 20 L 1.8200000000000003 5.84 L 3.74 5.84 z M 10.974 10.28 C 12.040700000000001 10.28 12.8773 10.6 13.484 11.239999999999998 C 14.0907 11.879999999999997 14.40066 12.739999999999998 14.414 13.819999999999999 L 14.414 20 L 12.613999999999999 20 L 12.613999999999999 14.34 C 12.613999999999999 13.60666 12.424 13.0267 12.043999999999999 12.6 C 11.663999999999998 12.1733 11.133999999999999 11.959999999999999 10.453999999999999 11.959999999999999 C 9.613999999999999 11.959999999999999 8.963999999999999 12.239999999999998 8.504 12.799999999999999 C 8.044 13.36 7.814 14.106699999999998 7.814 15.04 L 7.814 20 L 6.014 20 L 6.014 10.52 L 7.814 10.52 L 7.814 11.98 L 7.854 11.98 C 8.10734 11.44666 8.51734 11.030000000000001 9.084 10.73 C 9.650659999999998 10.43 10.2807 10.280000000000001 10.974 10.280000000000001 z M 17.108 10.52 L 19.248 17.6 L 19.288 17.6 L 21.548000000000002 10.520000000000001 L 23.448 10.520000000000001 L 25.848 17.6 L 25.887999999999998 17.6 L 27.927999999999997 10.520000000000001 L 29.827999999999996 10.520000000000001 L 26.767999999999997 20 L 24.947999999999997 20 L 22.447999999999997 12.92 L 22.407999999999998 12.92 L 20.147999999999996 20 L 18.207999999999995 20 L 15.087999999999994 10.52 L 17.107999999999993 10.52 z M 34.842 10.28 C 36.2953 10.28 37.425399999999996 10.73664 38.232 11.649999999999999 C 39.0386 12.563359999999998 39.4487 13.819999999999999 39.461999999999996 15.419999999999998 L 39.461999999999996 15.919999999999998 L 31.861999999999995 15.919999999999998 C 31.861999999999995 16.69334 32.172 17.3433 32.791999999999994 17.869999999999997 C 33.41199999999999 18.396699999999996 34.168699999999994 18.666659999999997 35.062 18.679999999999996 C 36.04866 18.679999999999996 36.915299999999995 18.206659999999996 37.662 17.259999999999998 L 39.022 18.299999999999997 C 38.0087 19.593299999999996 36.608599999999996 20.24 34.821999999999996 20.24 C 33.3687 20.24 32.1986 19.77666 31.311999999999998 18.849999999999998 C 30.425399999999996 17.923339999999996 29.9687 16.726599999999998 29.941999999999997 15.259999999999998 C 29.941999999999997 13.846699999999998 30.398659999999996 12.669999999999998 31.311999999999998 11.729999999999999 C 32.22534 10.79 33.402 10.3067 34.842 10.28 z M 37.542 14.48 C 37.51534 13.58666 37.262 12.9033 36.782000000000004 12.43 C 36.30200000000001 11.9567 35.642 11.719999999999999 34.80200000000001 11.719999999999999 C 34.242000000000004 11.719999999999999 33.73870000000001 11.856659999999998 33.29200000000001 12.129999999999999 C 32.84530000000001 12.40334 32.495340000000006 12.75668 32.24200000000001 13.19 C 31.988660000000017 13.62332 31.862000000000013 14.053339999999999 31.862000000000013 14.48 L 37.542000000000016 14.48 z M 43.916000000000004 10.28 C 44.636 10.28 45.279300000000006 10.41338 45.846000000000004 10.68004 C 46.4127 10.9467 46.84930000000001 11.33336 47.156000000000006 11.84004 L 45.75600000000001 12.90004 C 45.222660000000005 12.273380000000001 44.57600000000001 11.960040000000001 43.81600000000001 11.960040000000001 C 43.36266000000001 11.960040000000001 42.98600000000001 12.06004 42.68600000000001 12.260040000000002 C 42.386 12.460040000000003 42.236000000000004 12.713380000000003 42.236000000000004 13.020040000000002 C 42.236000000000004 13.686700000000002 42.856 14.140040000000003 44.096000000000004 14.380040000000001 C 45.3093 14.606700000000002 46.166000000000004 14.940040000000002 46.666000000000004 15.380040000000001 C 47.166000000000004 15.82004 47.416000000000004 16.446740000000002 47.416000000000004 17.26004 C 47.416000000000004 18.18004 47.066 18.90334 46.36600000000001 19.430039999999998 C 45.66600000000001 19.956739999999996 44.72930000000001 20.226699999999997 43.556000000000004 20.240039999999997 C 42.676 20.240039999999997 41.95270000000001 20.103379999999998 41.386 19.830039999999997 C 40.8193 19.556699999999996 40.3293 19.133359999999996 39.916000000000004 18.560039999999997 L 41.276 17.440039999999996 C 41.996 18.186699999999995 42.7627 18.560039999999997 43.576 18.560039999999997 C 44.10934 18.560039999999997 44.56268 18.453379999999996 44.936 18.240039999999997 C 45.30932 18.026699999999998 45.496 17.733359999999998 45.496 17.36002 C 45.496 16.70668 44.896 16.25332 43.696000000000005 16.00002 C 42.362700000000004 15.73336 41.46600000000001 15.3767 41.00600000000001 14.930019999999999 C 40.54600000000001 14.483339999999998 40.31600000000001 13.906719999999998 40.31600000000001 13.200019999999999 C 40.31600000000001 12.320019999999998 40.65600000000001 11.616719999999999 41.33600000000001 11.090019999999999 C 42.01600000000001 10.56332 42.87600000000001 10.29336 43.91600000000001 10.280019999999999 z M 53.269999999999996 10.28 C 54.669999999999995 10.28 55.85659999999999 10.76338 56.83 11.729999999999999 C 57.8034 12.696619999999998 58.2967 13.873399999999998 58.309999999999995 15.259999999999998 C 58.309999999999995 16.659999999999997 57.823339999999995 17.833399999999997 56.849999999999994 18.779999999999998 C 55.876659999999994 19.726599999999998 54.68339999999999 20.213299999999997 53.269999999999996 20.24 C 51.8833 20.24 50.703399999999995 19.759999999999998 49.73 18.799999999999997 C 48.7566 17.839999999999996 48.256699999999995 16.659999999999997 48.23 15.259999999999998 C 48.23 13.886699999999998 48.713339999999995 12.719999999999999 49.68 11.759999999999998 C 50.646660000000004 10.799999999999997 51.8434 10.306699999999998 53.269999999999996 10.279999999999998 z M 50.15 15.26 C 50.15 16.23334 50.43664 17.0233 51.00998 17.63 C 51.58332 18.2367 52.33668 18.54666 53.26998 18.56 C 54.21664 18.56 54.96998 18.25666 55.529979999999995 17.65 C 56.08997999999999 17.043339999999997 56.376639999999995 16.246699999999997 56.389979999999994 15.259999999999998 C 56.389979999999994 14.286659999999998 56.10997999999999 13.496699999999997 55.54997999999999 12.889999999999997 C 54.98997999999999 12.283299999999997 54.22327999999999 11.973339999999997 53.249979999999994 11.959999999999997 C 52.30331999999999 11.959999999999997 51.54997999999999 12.273339999999997 50.989979999999996 12.899999999999997 C 50.42998 13.526659999999996 50.14997999999999 14.313299999999996 50.14997999999999 15.259999999999996 z M 61.604 4.880000000000001 L 61.604 20 L 59.804 20 L 59.804 4.880000000000001 L 61.604 4.880000000000001 z M 64.978 17.48 C 65.35134 17.48 65.66463999999999 17.61342 65.91798 17.88008 C 66.17132000000001 18.146739999999998 66.29798 18.4534 66.29798 18.80006 C 66.29798 19.186719999999998 66.16463999999999 19.50338 65.89797999999999 19.75004 C 65.63131999999999 19.996699999999997 65.32466 20.12004 64.978 20.12004 C 64.63134 20.12004 64.32468 19.99338 64.05802 19.74004 C 63.79136 19.486700000000003 63.65802 19.17336 63.65802 18.80002 C 63.65802 18.42668 63.79136 18.11334 64.05802 17.86 C 64.32468 17.606659999999998 64.63134 17.48 64.978 17.48 z" stroke-linecap="round" />
</g>
</g>
</g>
<g transform="matrix(0.46 0 0 0.46 585.49 427.68)"  >
<g style=""   >
		<g transform="matrix(1.24 0 0 1.24 -149.27 6.31)"  >
<path style="stroke: none; stroke-width: 1; stroke-dasharray: none; stroke-linecap: butt; stroke-dashoffset: 0; stroke-linejoin: miter; stroke-miterlimit: 4; fill: rgb(39,56,65); fill-rule: nonzero; opacity: 1;" vector-effect="non-scaling-stroke"  transform=" translate(-50.5, -50)" d="M 29.5 25.5 C 32 25.5 34.1 23.4 34.1 20.9 C 34.1 18.4 32 16.299999999999997 29.5 16.299999999999997 C 27 16.299999999999997 24.9 18.4 24.9 20.9 C 24.9 23.4 27 25.5 29.5 25.5 z M 27 58 C 27 58.7 27.6 59.3 28.3 59.3 C 29 59.3 29.6 58.699999999999996 29.6 58 C 29.6 57.300000000000004 29 56.7 28.3 56.7 C 27.6 56.7 27 57.3 27 58 z M 36.2 31.3 C 37.300000000000004 31.3 38.1 30.400000000000002 38.1 29.400000000000002 C 38.1 28.3 37.2 27.500000000000004 36.2 27.500000000000004 C 35.1 27.500000000000004 34.300000000000004 28.400000000000002 34.300000000000004 29.400000000000002 C 34.3 30.4 35.1 31.3 36.2 31.3 z M 21.1 48.6 C 23.6 48.6 25.700000000000003 46.5 25.700000000000003 44 C 25.700000000000003 41.5 23.6 39.4 21.1 39.4 C 18.6 39.4 16.5 41.5 16.5 44 C 16.6 46.5 18.6 48.6 21.1 48.6 z M 14.5 37.8 C 15.6 37.8 16.4 36.9 16.4 35.9 C 16.4 34.8 15.499999999999998 34 14.499999999999998 34 C 13.399999999999999 34 12.599999999999998 34.9 12.599999999999998 35.9 C 12.6 37 13.4 37.8 14.5 37.8 z M 13.8 42 C 13.8 41.3 13.200000000000001 40.7 12.5 40.7 C 11.8 40.7 11.2 41.300000000000004 11.2 42 C 11.2 42.699999999999996 11.799999999999999 43.3 12.5 43.3 C 13.2 43.3 13.8 42.7 13.8 42 z M 19.9 31.2 C 21.7 31.2 23.099999999999998 29.8 23.099999999999998 28 C 23.099999999999998 26.2 21.7 24.8 19.9 24.8 C 18.099999999999998 24.8 16.7 26.2 16.7 28 C 16.7 29.8 18.1 31.2 19.9 31.2 z M 58.8 13.6 C 59.5 13.6 60.099999999999994 13 60.099999999999994 12.299999999999999 C 60.099999999999994 11.6 59.49999999999999 10.999999999999998 58.8 10.999999999999998 C 58.099999999999994 10.999999999999998 57.5 11.599999999999998 57.5 12.299999999999999 C 57.5 13 58.1 13.6 58.8 13.6 z M 23.8 57.5 C 23.8 54.4 21.3 51.9 18.200000000000003 51.9 C 15.100000000000003 51.9 12.600000000000003 54.4 12.600000000000003 57.5 C 12.600000000000003 60.6 15.100000000000003 63.1 18.200000000000003 63.1 C 21.3 63.1 23.8 60.6 23.8 57.5 z M 79.9 33.9 C 82.4 33.9 84.5 31.799999999999997 84.5 29.299999999999997 C 84.5 26.799999999999997 82.4 24.699999999999996 79.9 24.699999999999996 C 77.4 24.699999999999996 75.30000000000001 26.799999999999997 75.30000000000001 29.299999999999997 C 75.30000000000001 31.799999999999997 77.3 33.9 79.9 33.9 z M 69.6 65.5 C 69.6 67.3 71 68.7 72.8 68.7 C 74.6 68.7 76 67.3 76 65.5 C 76 63.7 74.6 62.3 72.8 62.3 C 71 62.3 69.6 63.7 69.6 65.5 z M 72.8 22.9 C 74.6 22.9 76 21.5 76 19.7 C 76 17.9 74.6 16.5 72.8 16.5 C 71 16.5 69.6 17.9 69.6 19.7 C 69.6 21.5 71 22.9 72.8 22.9 z M 65.7 31.2 C 67.5 31.2 68.9 29.8 68.9 28 C 68.9 26.2 67.5 24.8 65.7 24.8 C 63.900000000000006 24.8 62.5 26.2 62.5 28 C 62.5 29.8 63.9 31.2 65.7 31.2 z M 77.2 42.5 C 77.2 45.6 79.7 48.1 82.8 48.1 C 85.89999999999999 48.1 88.39999999999999 45.6 88.39999999999999 42.5 C 88.39999999999999 39.4 85.89999999999999 36.9 82.8 36.9 C 79.7 36.9 77.2 39.4 77.2 42.5 z M 74 42 C 74 41.3 73.4 40.7 72.7 40.7 C 72 40.7 71.4 41.300000000000004 71.4 42 C 71.4 42.699999999999996 72 43.3 72.7 43.3 C 73.4 43.3 74 42.7 74 42 z M 64.8 16.1 C 65.89999999999999 16.1 66.7 15.200000000000001 66.7 14.200000000000001 C 66.7 13.200000000000001 65.8 12.3 64.8 12.3 C 63.699999999999996 12.3 62.9 13.200000000000001 62.9 14.200000000000001 C 62.9 15.200000000000001 63.8 16.1 64.8 16.1 z M 70.8 37.8 C 71.89999999999999 37.8 72.7 36.9 72.7 35.9 C 72.7 34.8 71.8 34 70.8 34 C 69.8 34 68.89999999999999 34.9 68.89999999999999 35.9 C 68.9 37 69.8 37.8 70.8 37.8 z M 31.4 34.5 C 31.4 32.7 30 31.3 28.2 31.3 C 26.4 31.3 25 32.7 25 34.5 C 25 36.3 26.4 37.7 28.2 37.7 C 30 37.7 31.4 36.3 31.4 34.5 z M 64.8 68.7 C 63.699999999999996 68.7 62.9 69.60000000000001 62.9 70.60000000000001 C 62.9 71.7 63.8 72.50000000000001 64.8 72.50000000000001 C 65.89999999999999 72.50000000000001 66.7 71.60000000000001 66.7 70.60000000000001 C 66.7 69.6 65.9 68.7 64.8 68.7 z M 58.3 76.4 C 55.199999999999996 76.4 52.699999999999996 78.9 52.699999999999996 82 C 52.699999999999996 85.1 55.199999999999996 87.6 58.3 87.6 C 61.4 87.6 63.9 85.1 63.9 82 C 63.9 78.9 61.4 76.4 58.3 76.4 z M 71.5 74.5 C 69 74.5 66.9 76.6 66.9 79.1 C 66.9 81.6 69 83.69999999999999 71.5 83.69999999999999 C 74 83.69999999999999 76.1 81.6 76.1 79.1 C 76.1 76.6 74 74.5 71.5 74.5 z M 57.5 72.5 C 57.5 73.2 58.1 73.8 58.8 73.8 C 59.5 73.8 60.099999999999994 73.2 60.099999999999994 72.5 C 60.099999999999994 71.8 59.49999999999999 71.2 58.8 71.2 C 58.1 71.3 57.5 71.8 57.5 72.5 z M 88.5 56.7 C 87.8 56.7 87.2 57.300000000000004 87.2 58 C 87.2 58.699999999999996 87.8 59.3 88.5 59.3 C 89.2 59.3 89.8 58.699999999999996 89.8 58 C 89.8 57.300000000000004 89.1 56.7 88.5 56.7 z M 86.5 62.2 C 85.4 62.2 84.6 63.1 84.6 64.10000000000001 C 84.6 65.2 85.5 66.00000000000001 86.5 66.00000000000001 C 87.6 66.00000000000001 88.4 65.10000000000001 88.4 64.10000000000001 C 88.4 63 87.6 62.2 86.5 62.2 z M 56.2 25.5 C 58.7 25.5 60.800000000000004 23.4 60.800000000000004 20.9 C 60.800000000000004 18.4 58.7 16.299999999999997 56.2 16.299999999999997 C 53.7 16.299999999999997 51.6 18.4 51.6 20.9 C 51.6 23.4 53.7 25.5 56.2 25.5 z M 79.9 51.4 C 77.4 51.4 75.30000000000001 53.5 75.30000000000001 56 C 75.30000000000001 58.5 77.4 60.6 79.9 60.6 C 82.4 60.6 84.5 58.5 84.5 56 C 84.4 53.5 82.4 51.4 79.9 51.4 z M 21.1 66.1 C 18.6 66.1 16.5 68.19999999999999 16.5 70.69999999999999 C 16.5 73.19999999999999 18.6 75.29999999999998 21.1 75.29999999999998 C 23.6 75.29999999999998 25.700000000000003 73.19999999999999 25.700000000000003 70.69999999999999 C 25.700000000000003 68.19999999999999 23.7 66.1 21.1 66.1 z M 81.1 68.8 C 79.3 68.8 77.89999999999999 70.2 77.89999999999999 72 C 77.89999999999999 73.8 79.3 75.2 81.1 75.2 C 82.89999999999999 75.2 84.3 73.8 84.3 72 C 84.3 70.2 82.9 68.8 81.1 68.8 z M 30.2 62.2 C 29.099999999999998 62.2 28.3 63.1 28.3 64.10000000000001 C 28.3 65.2 29.2 66.00000000000001 30.2 66.00000000000001 C 31.2 66.00000000000001 32.1 65.10000000000001 32.1 64.10000000000001 C 32.1 63 31.2 62.2 30.2 62.2 z M 35.3 68.8 C 33.5 68.8 32.099999999999994 70.2 32.099999999999994 72 C 32.099999999999994 73.8 33.49999999999999 75.2 35.3 75.2 C 37.099999999999994 75.2 38.5 73.8 38.5 72 C 38.5 70.2 37.1 68.8 35.3 68.8 z M 36.2 83.9 C 35.1 83.9 34.300000000000004 84.80000000000001 34.300000000000004 85.80000000000001 C 34.300000000000004 86.80000000000001 35.2 87.70000000000002 36.2 87.70000000000002 C 37.300000000000004 87.70000000000002 38.1 86.80000000000001 38.1 85.80000000000001 C 38.1 84.80000000000001 37.2 83.9 36.2 83.9 z M 28.2 77.1 C 26.4 77.1 25 78.5 25 80.3 C 25 82.1 26.4 83.5 28.2 83.5 C 30 83.5 31.4 82.1 31.4 80.3 C 31.4 78.5 30 77.1 28.2 77.1 z M 41 27.5 C 41 28.2 41.6 28.8 42.3 28.8 C 43 28.8 43.599999999999994 28.2 43.599999999999994 27.5 C 43.599999999999994 26.8 42.99999999999999 26.2 42.3 26.2 C 41.5 26.2 41 26.8 41 27.5 z M 48.3 17.9 C 48.3 14.799999999999999 45.8 12.299999999999999 42.699999999999996 12.299999999999999 C 39.599999999999994 12.299999999999999 37.099999999999994 14.799999999999999 37.099999999999994 17.9 C 37.099999999999994 21 39.599999999999994 23.5 42.699999999999996 23.5 C 45.8 23.6 48.3 21.1 48.3 17.9 z M 42.2 86.4 C 41.5 86.4 40.900000000000006 87 40.900000000000006 87.7 C 40.900000000000006 88.4 41.50000000000001 89 42.2 89 C 42.900000000000006 89 43.5 88.4 43.5 87.7 C 43.5 87 42.9 86.4 42.2 86.4 z M 44.8 74.5 C 42.3 74.5 40.199999999999996 76.6 40.199999999999996 79.1 C 40.199999999999996 81.6 42.3 83.69999999999999 44.8 83.69999999999999 C 47.3 83.69999999999999 49.4 81.6 49.4 79.1 C 49.4 76.6 47.3 74.5 44.8 74.5 z" stroke-linecap="round" />
</g>
		<g transform="matrix(4.24 0 0 4.24 61.55 9.58)"  >
<path style="stroke: none; stroke-width: 1; stroke-dasharray: none; stroke-linecap: butt; stroke-dashoffset: 0; stroke-linejoin: miter; stroke-miterlimit: 4; fill: rgb(39,56,65); fill-rule: nonzero; opacity: 1;" vector-effect="non-scaling-stroke"  transform=" translate(-34.06, -12.56)" d="M 3.74 5.84 L 3.74 20 L 1.8200000000000003 20 L 1.8200000000000003 5.84 L 3.74 5.84 z M 10.974 10.28 C 12.040700000000001 10.28 12.8773 10.6 13.484 11.239999999999998 C 14.0907 11.879999999999997 14.40066 12.739999999999998 14.414 13.819999999999999 L 14.414 20 L 12.613999999999999 20 L 12.613999999999999 14.34 C 12.613999999999999 13.60666 12.424 13.0267 12.043999999999999 12.6 C 11.663999999999998 12.1733 11.133999999999999 11.959999999999999 10.453999999999999 11.959999999999999 C 9.613999999999999 11.959999999999999 8.963999999999999 12.239999999999998 8.504 12.799999999999999 C 8.044 13.36 7.814 14.106699999999998 7.814 15.04 L 7.814 20 L 6.014 20 L 6.014 10.52 L 7.814 10.52 L 7.814 11.98 L 7.854 11.98 C 8.10734 11.44666 8.51734 11.030000000000001 9.084 10.73 C 9.650659999999998 10.43 10.2807 10.280000000000001 10.974 10.280000000000001 z M 17.108 10.52 L 19.248 17.6 L 19.288 17.6 L 21.548000000000002 10.520000000000001 L 23.448 10.520000000000001 L 25.848 17.6 L 25.887999999999998 17.6 L 27.927999999999997 10.520000000000001 L 29.827999999999996 10.520000000000001 L 26.767999999999997 20 L 24.947999999999997 20 L 22.447999999999997 12.92 L 22.407999999999998 12.92 L 20.147999999999996 20 L 18.207999999999995 20 L 15.087999999999994 10.52 L 17.107999999999993 10.52 z M 34.842 10.28 C 36.2953 10.28 37.425399999999996 10.73664 38.232 11.649999999999999 C 39.0386 12.563359999999998 39.4487 13.819999999999999 39.461999999999996 15.419999999999998 L 39.461999999999996 15.919999999999998 L 31.861999999999995 15.919999999999998 C 31.861999999999995 16.69334 32.172 17.3433 32.791999999999994 17.869999999999997 C 33.41199999999999 18.396699999999996 34.168699999999994 18.666659999999997 35.062 18.679999999999996 C 36.04866 18.679999999999996 36.915299999999995 18.206659999999996 37.662 17.259999999999998 L 39.022 18.299999999999997 C 38.0087 19.593299999999996 36.608599999999996 20.24 34.821999999999996 20.24 C 33.3687 20.24 32.1986 19.77666 31.311999999999998 18.849999999999998 C 30.425399999999996 17.923339999999996 29.9687 16.726599999999998 29.941999999999997 15.259999999999998 C 29.941999999999997 13.846699999999998 30.398659999999996 12.669999999999998 31.311999999999998 11.729999999999999 C 32.22534 10.79 33.402 10.3067 34.842 10.28 z M 37.542 14.48 C 37.51534 13.58666 37.262 12.9033 36.782000000000004 12.43 C 36.30200000000001 11.9567 35.642 11.719999999999999 34.80200000000001 11.719999999999999 C 34.242000000000004 11.719999999999999 33.73870000000001 11.856659999999998 33.29200000000001 12.129999999999999 C 32.84530000000001 12.40334 32.495340000000006 12.75668 32.24200000000001 13.19 C 31.988660000000017 13.62332 31.862000000000013 14.053339999999999 31.862000000000013 14.48 L 37.542000000000016 14.48 z M 43.916000000000004 10.28 C 44.636 10.28 45.279300000000006 10.41338 45.846000000000004 10.68004 C 46.4127 10.9467 46.84930000000001 11.33336 47.156000000000006 11.84004 L 45.75600000000001 12.90004 C 45.222660000000005 12.273380000000001 44.57600000000001 11.960040000000001 43.81600000000001 11.960040000000001 C 43.36266000000001 11.960040000000001 42.98600000000001 12.06004 42.68600000000001 12.260040000000002 C 42.386 12.460040000000003 42.236000000000004 12.713380000000003 42.236000000000004 13.020040000000002 C 42.236000000000004 13.686700000000002 42.856 14.140040000000003 44.096000000000004 14.380040000000001 C 45.3093 14.606700000000002 46.166000000000004 14.940040000000002 46.666000000000004 15.380040000000001 C 47.166000000000004 15.82004 47.416000000000004 16.446740000000002 47.416000000000004 17.26004 C 47.416000000000004 18.18004 47.066 18.90334 46.36600000000001 19.430039999999998 C 45.66600000000001 19.956739999999996 44.72930000000001 20.226699999999997 43.556000000000004 20.240039999999997 C 42.676 20.240039999999997 41.95270000000001 20.103379999999998 41.386 19.830039999999997 C 40.8193 19.556699999999996 40.3293 19.133359999999996 39.916000000000004 18.560039999999997 L 41.276 17.440039999999996 C 41.996 18.186699999999995 42.7627 18.560039999999997 43.576 18.560039999999997 C 44.10934 18.560039999999997 44.56268 18.453379999999996 44.936 18.240039999999997 C 45.30932 18.026699999999998 45.496 17.733359999999998 45.496 17.36002 C 45.496 16.70668 44.896 16.25332 43.696000000000005 16.00002 C 42.362700000000004 15.73336 41.46600000000001 15.3767 41.00600000000001 14.930019999999999 C 40.54600000000001 14.483339999999998 40.31600000000001 13.906719999999998 40.31600000000001 13.200019999999999 C 40.31600000000001 12.320019999999998 40.65600000000001 11.616719999999999 41.33600000000001 11.090019999999999 C 42.01600000000001 10.56332 42.87600000000001 10.29336 43.91600000000001 10.280019999999999 z M 53.269999999999996 10.28 C 54.669999999999995 10.28 55.85659999999999 10.76338 56.83 11.729999999999999 C 57.8034 12.696619999999998 58.2967 13.873399999999998 58.309999999999995 15.259999999999998 C 58.309999999999995 16.659999999999997 57.823339999999995 17.833399999999997 56.849999999999994 18.779999999999998 C 55.876659999999994 19.726599999999998 54.68339999999999 20.213299999999997 53.269999999999996 20.24 C 51.8833 20.24 50.703399999999995 19.759999999999998 49.73 18.799999999999997 C 48.7566 17.839999999999996 48.256699999999995 16.659999999999997 48.23 15.259999999999998 C 48.23 13.886699999999998 48.713339999999995 12.719999999999999 49.68 11.759999999999998 C 50.646660000000004 10.799999999999997 51.8434 10.306699999999998 53.269999999999996 10.279999999999998 z M 50.15 15.26 C 50.15 16.23334 50.43664 17.0233 51.00998 17.63 C 51.58332 18.2367 52.33668 18.54666 53.26998 18.56 C 54.21664 18.56 54.96998 18.25666 55.529979999999995 17.65 C 56.08997999999999 17.043339999999997 56.376639999999995 16.246699999999997 56.389979999999994 15.259999999999998 C 56.389979999999994 14.286659999999998 56.10997999999999 13.496699999999997 55.54997999999999 12.889999999999997 C 54.98997999999999 12.283299999999997 54.22327999999999 11.973339999999997 53.249979999999994 11.959999999999997 C 52.30331999999999 11.959999999999997 51.54997999999999 12.273339999999997 50.989979999999996 12.899999999999997 C 50.42998 13.526659999999996 50.14997999999999 14.313299999999996 50.14997999999999 15.259999999999996 z M 61.604 4.880000000000001 L 61.604 20 L 59.804 20 L 59.804 4.880000000000001 L 61.604 4.880000000000001 z M 64.978 17.48 C 65.35134 17.48 65.66463999999999 17.61342 65.91798 17.88008 C 66.17132000000001 18.146739999999998 66.29798 18.4534 66.29798 18.80006 C 66.29798 19.186719999999998 66.16463999999999 19.50338 65.89797999999999 19.75004 C 65.63131999999999 19.996699999999997 65.32466 20.12004 64.978 20.12004 C 64.63134 20.12004 64.32468 19.99338 64.05802 19.74004 C 63.79136 19.486700000000003 63.65802 19.17336 63.65802 18.80002 C 63.65802 18.42668 63.79136 18.11334 64.05802 17.86 C 64.32468 17.606659999999998 64.63134 17.48 64.978 17.48 z" stroke-linecap="round" />
</g>
</g>
</g>
<g transform="matrix(0 0 0 0 464.19 229.98)"  >
<g style=""   >
</g>
</g>
<g transform="matrix(0 0 0 0 264.19 41.44)"  >
<g style=""   >
</g>
</g>
<g transform="matrix(0 0 0 0 170.45 -52.83)"  >
<g style=""   >
</g>
</g>
<g transform="matrix(0 0 0 0 170.45 -52.83)"  >
<g style=""   >
</g>
</g>
<g transform="matrix(0 0 0 0 123.58 0.04)"  >
<g style=""   >
</g>
</g>
<g transform="matrix(0 0 0 0 123.58 0.04)"  >
<g style=""   >
</g>
</g>
<g transform="matrix(0.54 0 0 0.54 200 100)"  >
<g style=""   >
		<g transform="matrix(1.24 0 0 1.24 -149.27 6.31)"  >
<path style="stroke: none; stroke-width: 1; stroke-dasharray: none; stroke-linecap: butt; stroke-dashoffset: 0; stroke-linejoin: miter; stroke-miterlimit: 4; fill: rgb(39,56,65); fill-rule: nonzero; opacity: 1;" vector-effect="non-scaling-stroke"  transform=" translate(-50.5, -50)" d="M 29.5 25.5 C 32 25.5 34.1 23.4 34.1 20.9 C 34.1 18.4 32 16.299999999999997 29.5 16.299999999999997 C 27 16.299999999999997 24.9 18.4 24.9 20.9 C 24.9 23.4 27 25.5 29.5 25.5 z M 27 58 C 27 58.7 27.6 59.3 28.3 59.3 C 29 59.3 29.6 58.699999999999996 29.6 58 C 29.6 57.300000000000004 29 56.7 28.3 56.7 C 27.6 56.7 27 57.3 27 58 z M 36.2 31.3 C 37.300000000000004 31.3 38.1 30.400000000000002 38.1 29.400000000000002 C 38.1 28.3 37.2 27.500000000000004 36.2 27.500000000000004 C 35.1 27.500000000000004 34.300000000000004 28.400000000000002 34.300000000000004 29.400000000000002 C 34.3 30.4 35.1 31.3 36.2 31.3 z M 21.1 48.6 C 23.6 48.6 25.700000000000003 46.5 25.700000000000003 44 C 25.700000000000003 41.5 23.6 39.4 21.1 39.4 C 18.6 39.4 16.5 41.5 16.5 44 C 16.6 46.5 18.6 48.6 21.1 48.6 z M 14.5 37.8 C 15.6 37.8 16.4 36.9 16.4 35.9 C 16.4 34.8 15.499999999999998 34 14.499999999999998 34 C 13.399999999999999 34 12.599999999999998 34.9 12.599999999999998 35.9 C 12.6 37 13.4 37.8 14.5 37.8 z M 13.8 42 C 13.8 41.3 13.200000000000001 40.7 12.5 40.7 C 11.8 40.7 11.2 41.300000000000004 11.2 42 C 11.2 42.699999999999996 11.799999999999999 43.3 12.5 43.3 C 13.2 43.3 13.8 42.7 13.8 42 z M 19.9 31.2 C 21.7 31.2 23.099999999999998 29.8 23.099999999999998 28 C 23.099999999999998 26.2 21.7 24.8 19.9 24.8 C 18.099999999999998 24.8 16.7 26.2 16.7 28 C 16.7 29.8 18.1 31.2 19.9 31.2 z M 58.8 13.6 C 59.5 13.6 60.099999999999994 13 60.099999999999994 12.299999999999999 C 60.099999999999994 11.6 59.49999999999999 10.999999999999998 58.8 10.999999999999998 C 58.099999999999994 10.999999999999998 57.5 11.599999999999998 57.5 12.299999999999999 C 57.5 13 58.1 13.6 58.8 13.6 z M 23.8 57.5 C 23.8 54.4 21.3 51.9 18.200000000000003 51.9 C 15.100000000000003 51.9 12.600000000000003 54.4 12.600000000000003 57.5 C 12.600000000000003 60.6 15.100000000000003 63.1 18.200000000000003 63.1 C 21.3 63.1 23.8 60.6 23.8 57.5 z M 79.9 33.9 C 82.4 33.9 84.5 31.799999999999997 84.5 29.299999999999997 C 84.5 26.799999999999997 82.4 24.699999999999996 79.9 24.699999999999996 C 77.4 24.699999999999996 75.30000000000001 26.799999999999997 75.30000000000001 29.299999999999997 C 75.30000000000001 31.799999999999997 77.3 33.9 79.9 33.9 z M 69.6 65.5 C 69.6 67.3 71 68.7 72.8 68.7 C 74.6 68.7 76 67.3 76 65.5 C 76 63.7 74.6 62.3 72.8 62.3 C 71 62.3 69.6 63.7 69.6 65.5 z M 72.8 22.9 C 74.6 22.9 76 21.5 76 19.7 C 76 17.9 74.6 16.5 72.8 16.5 C 71 16.5 69.6 17.9 69.6 19.7 C 69.6 21.5 71 22.9 72.8 22.9 z M 65.7 31.2 C 67.5 31.2 68.9 29.8 68.9 28 C 68.9 26.2 67.5 24.8 65.7 24.8 C 63.900000000000006 24.8 62.5 26.2 62.5 28 C 62.5 29.8 63.9 31.2 65.7 31.2 z M 77.2 42.5 C 77.2 45.6 79.7 48.1 82.8 48.1 C 85.89999999999999 48.1 88.39999999999999 45.6 88.39999999999999 42.5 C 88.39999999999999 39.4 85.89999999999999 36.9 82.8 36.9 C 79.7 36.9 77.2 39.4 77.2 42.5 z M 74 42 C 74 41.3 73.4 40.7 72.7 40.7 C 72 40.7 71.4 41.300000000000004 71.4 42 C 71.4 42.699999999999996 72 43.3 72.7 43.3 C 73.4 43.3 74 42.7 74 42 z M 64.8 16.1 C 65.89999999999999 16.1 66.7 15.200000000000001 66.7 14.200000000000001 C 66.7 13.200000000000001 65.8 12.3 64.8 12.3 C 63.699999999999996 12.3 62.9 13.200000000000001 62.9 14.200000000000001 C 62.9 15.200000000000001 63.8 16.1 64.8 16.1 z M 70.8 37.8 C 71.89999999999999 37.8 72.7 36.9 72.7 35.9 C 72.7 34.8 71.8 34 70.8 34 C 69.8 34 68.89999999999999 34.9 68.89999999999999 35.9 C 68.9 37 69.8 37.8 70.8 37.8 z M 31.4 34.5 C 31.4 32.7 30 31.3 28.2 31.3 C 26.4 31.3 25 32.7 25 34.5 C 25 36.3 26.4 37.7 28.2 37.7 C 30 37.7 31.4 36.3 31.4 34.5 z M 64.8 68.7 C 63.699999999999996 68.7 62.9 69.60000000000001 62.9 70.60000000000001 C 62.9 71.7 63.8 72.50000000000001 64.8 72.50000000000001 C 65.89999999999999 72.50000000000001 66.7 71.60000000000001 66.7 70.60000000000001 C 66.7 69.6 65.9 68.7 64.8 68.7 z M 58.3 76.4 C 55.199999999999996 76.4 52.699999999999996 78.9 52.699999999999996 82 C 52.699999999999996 85.1 55.199999999999996 87.6 58.3 87.6 C 61.4 87.6 63.9 85.1 63.9 82 C 63.9 78.9 61.4 76.4 58.3 76.4 z M 71.5 74.5 C 69 74.5 66.9 76.6 66.9 79.1 C 66.9 81.6 69 83.69999999999999 71.5 83.69999999999999 C 74 83.69999999999999 76.1 81.6 76.1 79.1 C 76.1 76.6 74 74.5 71.5 74.5 z M 57.5 72.5 C 57.5 73.2 58.1 73.8 58.8 73.8 C 59.5 73.8 60.099999999999994 73.2 60.099999999999994 72.5 C 60.099999999999994 71.8 59.49999999999999 71.2 58.8 71.2 C 58.1 71.3 57.5 71.8 57.5 72.5 z M 88.5 56.7 C 87.8 56.7 87.2 57.300000000000004 87.2 58 C 87.2 58.699999999999996 87.8 59.3 88.5 59.3 C 89.2 59.3 89.8 58.699999999999996 89.8 58 C 89.8 57.300000000000004 89.1 56.7 88.5 56.7 z M 86.5 62.2 C 85.4 62.2 84.6 63.1 84.6 64.10000000000001 C 84.6 65.2 85.5 66.00000000000001 86.5 66.00000000000001 C 87.6 66.00000000000001 88.4 65.10000000000001 88.4 64.10000000000001 C 88.4 63 87.6 62.2 86.5 62.2 z M 56.2 25.5 C 58.7 25.5 60.800000000000004 23.4 60.800000000000004 20.9 C 60.800000000000004 18.4 58.7 16.299999999999997 56.2 16.299999999999997 C 53.7 16.299999999999997 51.6 18.4 51.6 20.9 C 51.6 23.4 53.7 25.5 56.2 25.5 z M 79.9 51.4 C 77.4 51.4 75.30000000000001 53.5 75.30000000000001 56 C 75.30000000000001 58.5 77.4 60.6 79.9 60.6 C 82.4 60.6 84.5 58.5 84.5 56 C 84.4 53.5 82.4 51.4 79.9 51.4 z M 21.1 66.1 C 18.6 66.1 16.5 68.19999999999999 16.5 70.69999999999999 C 16.5 73.19999999999999 18.6 75.29999999999998 21.1 75.29999999999998 C 23.6 75.29999999999998 25.700000000000003 73.19999999999999 25.700000000000003 70.69999999999999 C 25.700000000000003 68.19999999999999 23.7 66.1 21.1 66.1 z M 81.1 68.8 C 79.3 68.8 77.89999999999999 70.2 77.89999999999999 72 C 77.89999999999999 73.8 79.3 75.2 81.1 75.2 C 82.89999999999999 75.2 84.3 73.8 84.3 72 C 84.3 70.2 82.9 68.8 81.1 68.8 z M 30.2 62.2 C 29.099999999999998 62.2 28.3 63.1 28.3 64.10000000000001 C 28.3 65.2 29.2 66.00000000000001 30.2 66.00000000000001 C 31.2 66.00000000000001 32.1 65.10000000000001 32.1 64.10000000000001 C 32.1 63 31.2 62.2 30.2 62.2 z M 35.3 68.8 C 33.5 68.8 32.099999999999994 70.2 32.099999999999994 72 C 32.099999999999994 73.8 33.49999999999999 75.2 35.3 75.2 C 37.099999999999994 75.2 38.5 73.8 38.5 72 C 38.5 70.2 37.1 68.8 35.3 68.8 z M 36.2 83.9 C 35.1 83.9 34.300000000000004 84.80000000000001 34.300000000000004 85.80000000000001 C 34.300000000000004 86.80000000000001 35.2 87.70000000000002 36.2 87.70000000000002 C 37.300000000000004 87.70000000000002 38.1 86.80000000000001 38.1 85.80000000000001 C 38.1 84.80000000000001 37.2 83.9 36.2 83.9 z M 28.2 77.1 C 26.4 77.1 25 78.5 25 80.3 C 25 82.1 26.4 83.5 28.2 83.5 C 30 83.5 31.4 82.1 31.4 80.3 C 31.4 78.5 30 77.1 28.2 77.1 z M 41 27.5 C 41 28.2 41.6 28.8 42.3 28.8 C 43 28.8 43.599999999999994 28.2 43.599999999999994 27.5 C 43.599999999999994 26.8 42.99999999999999 26.2 42.3 26.2 C 41.5 26.2 41 26.8 41 27.5 z M 48.3 17.9 C 48.3 14.799999999999999 45.8 12.299999999999999 42.699999999999996 12.299999999999999 C 39.599999999999994 12.299999999999999 37.099999999999994 14.799999999999999 37.099999999999994 17.9 C 37.099999999999994 21 39.599999999999994 23.5 42.699999999999996 23.5 C 45.8 23.6 48.3 21.1 48.3 17.9 z M 42.2 86.4 C 41.5 86.4 40.900000000000006 87 40.900000000000006 87.7 C 40.900000000000006 88.4 41.50000000000001 89 42.2 89 C 42.900000000000006 89 43.5 88.4 43.5 87.7 C 43.5 87 42.9 86.4 42.2 86.4 z M 44.8 74.5 C 42.3 74.5 40.199999999999996 76.6 40.199999999999996 79.1 C 40.199999999999996 81.6 42.3 83.69999999999999 44.8 83.69999999999999 C 47.3 83.69999999999999 49.4 81.6 49.4 79.1 C 49.4 76.6 47.3 74.5 44.8 74.5 z" stroke-linecap="round" />
</g>
		<g transform="matrix(4.24 0 0 4.24 61.55 9.58)"  >
<path style="stroke: none; stroke-width: 1; stroke-dasharray: none; stroke-linecap: butt; stroke-dashoffset: 0; stroke-linejoin: miter; stroke-miterlimit: 4; fill: rgb(39,56,65); fill-rule: nonzero; opacity: 1;" vector-effect="non-scaling-stroke"  transform=" translate(-34.06, -12.56)" d="M 3.74 5.84 L 3.74 20 L 1.8200000000000003 20 L 1.8200000000000003 5.84 L 3.74 5.84 z M 10.974 10.28 C 12.040700000000001 10.28 12.8773 10.6 13.484 11.239999999999998 C 14.0907 11.879999999999997 14.40066 12.739999999999998 14.414 13.819999999999999 L 14.414 20 L 12.613999999999999 20 L 12.613999999999999 14.34 C 12.613999999999999 13.60666 12.424 13.0267 12.043999999999999 12.6 C 11.663999999999998 12.1733 11.133999999999999 11.959999999999999 10.453999999999999 11.959999999999999 C 9.613999999999999 11.959999999999999 8.963999999999999 12.239999999999998 8.504 12.799999999999999 C 8.044 13.36 7.814 14.106699999999998 7.814 15.04 L 7.814 20 L 6.014 20 L 6.014 10.52 L 7.814 10.52 L 7.814 11.98 L 7.854 11.98 C 8.10734 11.44666 8.51734 11.030000000000001 9.084 10.73 C 9.650659999999998 10.43 10.2807 10.280000000000001 10.974 10.280000000000001 z M 17.108 10.52 L 19.248 17.6 L 19.288 17.6 L 21.548000000000002 10.520000000000001 L 23.448 10.520000000000001 L 25.848 17.6 L 25.887999999999998 17.6 L 27.927999999999997 10.520000000000001 L 29.827999999999996 10.520000000000001 L 26.767999999999997 20 L 24.947999999999997 20 L 22.447999999999997 12.92 L 22.407999999999998 12.92 L 20.147999999999996 20 L 18.207999999999995 20 L 15.087999999999994 10.52 L 17.107999999999993 10.52 z M 34.842 10.28 C 36.2953 10.28 37.425399999999996 10.73664 38.232 11.649999999999999 C 39.0386 12.563359999999998 39.4487 13.819999999999999 39.461999999999996 15.419999999999998 L 39.461999999999996 15.919999999999998 L 31.861999999999995 15.919999999999998 C 31.861999999999995 16.69334 32.172 17.3433 32.791999999999994 17.869999999999997 C 33.41199999999999 18.396699999999996 34.168699999999994 18.666659999999997 35.062 18.679999999999996 C 36.04866 18.679999999999996 36.915299999999995 18.206659999999996 37.662 17.259999999999998 L 39.022 18.299999999999997 C 38.0087 19.593299999999996 36.608599999999996 20.24 34.821999999999996 20.24 C 33.3687 20.24 32.1986 19.77666 31.311999999999998 18.849999999999998 C 30.425399999999996 17.923339999999996 29.9687 16.726599999999998 29.941999999999997 15.259999999999998 C 29.941999999999997 13.846699999999998 30.398659999999996 12.669999999999998 31.311999999999998 11.729999999999999 C 32.22534 10.79 33.402 10.3067 34.842 10.28 z M 37.542 14.48 C 37.51534 13.58666 37.262 12.9033 36.782000000000004 12.43 C 36.30200000000001 11.9567 35.642 11.719999999999999 34.80200000000001 11.719999999999999 C 34.242000000000004 11.719999999999999 33.73870000000001 11.856659999999998 33.29200000000001 12.129999999999999 C 32.84530000000001 12.40334 32.495340000000006 12.75668 32.24200000000001 13.19 C 31.988660000000017 13.62332 31.862000000000013 14.053339999999999 31.862000000000013 14.48 L 37.542000000000016 14.48 z M 43.916000000000004 10.28 C 44.636 10.28 45.279300000000006 10.41338 45.846000000000004 10.68004 C 46.4127 10.9467 46.84930000000001 11.33336 47.156000000000006 11.84004 L 45.75600000000001 12.90004 C 45.222660000000005 12.273380000000001 44.57600000000001 11.960040000000001 43.81600000000001 11.960040000000001 C 43.36266000000001 11.960040000000001 42.98600000000001 12.06004 42.68600000000001 12.260040000000002 C 42.386 12.460040000000003 42.236000000000004 12.713380000000003 42.236000000000004 13.020040000000002 C 42.236000000000004 13.686700000000002 42.856 14.140040000000003 44.096000000000004 14.380040000000001 C 45.3093 14.606700000000002 46.166000000000004 14.940040000000002 46.666000000000004 15.380040000000001 C 47.166000000000004 15.82004 47.416000000000004 16.446740000000002 47.416000000000004 17.26004 C 47.416000000000004 18.18004 47.066 18.90334 46.36600000000001 19.430039999999998 C 45.66600000000001 19.956739999999996 44.72930000000001 20.226699999999997 43.556000000000004 20.240039999999997 C 42.676 20.240039999999997 41.95270000000001 20.103379999999998 41.386 19.830039999999997 C 40.8193 19.556699999999996 40.3293 19.133359999999996 39.916000000000004 18.560039999999997 L 41.276 17.440039999999996 C 41.996 18.186699999999995 42.7627 18.560039999999997 43.576 18.560039999999997 C 44.10934 18.560039999999997 44.56268 18.453379999999996 44.936 18.240039999999997 C 45.30932 18.026699999999998 45.496 17.733359999999998 45.496 17.36002 C 45.496 16.70668 44.896 16.25332 43.696000000000005 16.00002 C 42.362700000000004 15.73336 41.46600000000001 15.3767 41.00600000000001 14.930019999999999 C 40.54600000000001 14.483339999999998 40.31600000000001 13.906719999999998 40.31600000000001 13.200019999999999 C 40.31600000000001 12.320019999999998 40.65600000000001 11.616719999999999 41.33600000000001 11.090019999999999 C 42.01600000000001 10.56332 42.87600000000001 10.29336 43.91600000000001 10.280019999999999 z M 53.269999999999996 10.28 C 54.669999999999995 10.28 55.85659999999999 10.76338 56.83 11.729999999999999 C 57.8034 12.696619999999998 58.2967 13.873399999999998 58.309999999999995 15.259999999999998 C 58.309999999999995 16.659999999999997 57.823339999999995 17.833399999999997 56.849999999999994 18.779999999999998 C 55.876659999999994 19.726599999999998 54.68339999999999 20.213299999999997 53.269999999999996 20.24 C 51.8833 20.24 50.703399999999995 19.759999999999998 49.73 18.799999999999997 C 48.7566 17.839999999999996 48.256699999999995 16.659999999999997 48.23 15.259999999999998 C 48.23 13.886699999999998 48.713339999999995 12.719999999999999 49.68 11.759999999999998 C 50.646660000000004 10.799999999999997 51.8434 10.306699999999998 53.269999999999996 10.279999999999998 z M 50.15 15.26 C 50.15 16.23334 50.43664 17.0233 51.00998 17.63 C 51.58332 18.2367 52.33668 18.54666 53.26998 18.56 C 54.21664 18.56 54.96998 18.25666 55.529979999999995 17.65 C 56.08997999999999 17.043339999999997 56.376639999999995 16.246699999999997 56.389979999999994 15.259999999999998 C 56.389979999999994 14.286659999999998 56.10997999999999 13.496699999999997 55.54997999999999 12.889999999999997 C 54.98997999999999 12.283299999999997 54.22327999999999 11.973339999999997 53.249979999999994 11.959999999999997 C 52.30331999999999 11.959999999999997 51.54997999999999 12.273339999999997 50.989979999999996 12.899999999999997 C 50.42998 13.526659999999996 50.14997999999999 14.313299999999996 50.14997999999999 15.259999999999996 z M 61.604 4.880000000000001 L 61.604 20 L 59.804 20 L 59.804 4.880000000000001 L 61.604 4.880000000000001 z M 64.978 17.48 C 65.35134 17.48 65.66463999999999 17.61342 65.91798 17.88008 C 66.17132000000001 18.146739999999998 66.29798 18.4534 66.29798 18.80006 C 66.29798 19.186719999999998 66.16463999999999 19.50338 65.89797999999999 19.75004 C 65.63131999999999 19.996699999999997 65.32466 20.12004 64.978 20.12004 C 64.63134 20.12004 64.32468 19.99338 64.05802 19.74004 C 63.79136 19.486700000000003 63.65802 19.17336 63.65802 18.80002 C 63.65802 18.42668 63.79136 18.11334 64.05802 17.86 C 64.32468 17.606659999999998 64.63134 17.48 64.978 17.48 z" stroke-linecap="round" />
</g>
</g>
</g>
<g transform="matrix(0 0 NaN NaN 200.15 0)"  >
<g style=""   >
</g>
</g>
</svg>