<?xml version="1.0"?>
<svg version="1.1" xmlns="http://www.w3.org/2000/svg" width="400px" height="200px" style=""><path fill="#283841" d="M7.1875,147.96875l0-57.109375l12.109375,0l0,57.109375l-12.109375,0z M78.545703125,147.96875l-11.9140625,0l0-25.5078125q0-4.7265625-1.6796875-7.08984375t-5.3515625-2.36328125q-5,0-7.2265625,3.33984375t-2.2265625,11.07421875l0,20.546875l-11.9140625,0l0-43.671875l9.1015625,0l1.6015625,5.5859375l0.6640625,0q1.9921875-3.1640625,5.48828125-4.78515625t7.94921875-1.62109375q7.6171875,0,11.5625,4.12109375t3.9453125,11.89453125l0,28.4765625z M132.20859375,147.96875l-3.359375-15.2734375l-4.53125-19.296875l-0.2734375,0l-7.96875,34.5703125l-12.8125,0l-12.421875-43.671875l11.875,0l5.0390625,19.3359375q1.2109375,5.1953125,2.4609375,14.3359375l0.234375,0q0.15625-2.96875,1.3671875-9.4140625l0.625-3.3203125l5.390625-20.9375l13.125,0l5.1171875,20.9375q0.15625,0.859375,0.48828125,2.5390625t0.64453125,3.57421875t0.56640625,3.7109375t0.29296875,2.91015625l0.234375,0q0.3515625-2.8125,1.25-7.71484375t1.2890625-6.62109375l5.234375-19.3359375l11.6796875,0l-12.578125,43.671875l-12.96875,0z M188.371484375,111.953125q-3.7890625,0-5.9375,2.40234375t-2.4609375,6.81640625l16.71875,0q-0.078125-4.4140625-2.3046875-6.81640625t-6.015625-2.40234375z M190.051171875,148.75q-10.546875,0-16.484375-5.8203125t-5.9375-16.484375q0-10.9765625,5.48828125-16.97265625t15.17578125-5.99609375q9.2578125,0,14.4140625,5.2734375t5.15625,14.5703125l0,5.78125l-28.1640625,0q0.1953125,5.078125,3.0078125,7.9296875t7.890625,2.8515625q3.9453125,0,7.4609375-0.8203125t7.34375-2.6171875l0,9.21875q-3.125,1.5625-6.6796875,2.32421875t-8.671875,0.76171875z M253.51875,135q0,6.71875-4.66796875,10.234375t-13.96484375,3.515625q-4.765625,0-8.125-0.64453125t-6.2890625-1.89453125l0-9.84375q3.3203125,1.5625,7.48046875,2.6171875t7.32421875,1.0546875q6.484375,0,6.484375-3.75q0-1.40625-0.859375-2.28515625t-2.96875-1.9921875t-5.625-2.59765625q-5.0390625-2.109375-7.40234375-3.90625t-3.4375-4.12109375t-1.07421875-5.72265625q0-5.8203125,4.51171875-9.00390625t12.79296875-3.18359375q7.890625,0,15.3515625,3.4375l-3.59375,8.59375q-3.28125-1.40625-6.1328125-2.3046875t-5.8203125-0.8984375q-5.2734375,0-5.2734375,2.8515625q0,1.6015625,1.69921875,2.7734375t7.44140625,3.4765625q5.1171875,2.0703125,7.5,3.8671875t3.515625,4.140625t1.1328125,5.5859375z M277.806640625,126.0546875q0,6.484375,2.12890625,9.8046875t6.93359375,3.3203125q4.765625,0,6.85546875-3.30078125t2.08984375-9.82421875q0-6.484375-2.109375-9.7265625t-6.9140625-3.2421875q-4.765625,0-6.875,3.22265625t-2.109375,9.74609375z M308.001953125,126.0546875q0,10.6640625-5.625,16.6796875t-15.6640625,6.015625q-6.2890625,0-11.09375-2.75390625t-7.3828125-7.91015625t-2.578125-12.03125q0-10.703125,5.5859375-16.640625t15.703125-5.9375q6.2890625,0,11.09375,2.734375t7.3828125,7.8515625t2.578125,11.9921875z M335.25859375,147.96875l-11.9140625,0l0-60.78125l11.9140625,0l0,60.78125z M351.577734375,142.3828125q0-3.28125,1.7578125-4.9609375t5.1171875-1.6796875q3.2421875,0,5.01953125,1.71875t1.77734375,4.921875q0,3.0859375-1.796875,4.86328125t-5,1.77734375q-3.28125,0-5.078125-1.73828125t-1.796875-4.90234375z"/><path fill="#" d=""/></svg>
