<svg xmlns="http://www.w3.org/2000/svg" viewBox="0 0 500 500"><g id="freepik--background-complete--inject-214"><rect x="416.78" y="398.49" width="33.12" height="0.25" style="fill:#ebebeb"></rect><rect x="322.53" y="401.21" width="8.69" height="0.25" style="fill:#ebebeb"></rect><rect x="396.59" y="389.21" width="19.19" height="0.25" style="fill:#ebebeb"></rect><rect x="52.46" y="390.89" width="43.19" height="0.25" style="fill:#ebebeb"></rect><rect x="104.56" y="390.89" width="6.33" height="0.25" style="fill:#ebebeb"></rect><rect x="131.47" y="395.11" width="93.68" height="0.25" style="fill:#ebebeb"></rect><path d="M238.4,337.8H45.3a5.71,5.71,0,0,1-5.71-5.71V60.66A5.71,5.71,0,0,1,45.3,55H238.4a5.71,5.71,0,0,1,5.71,5.71V332.09A5.71,5.71,0,0,1,238.4,337.8ZM45.3,55.2a5.47,5.47,0,0,0-5.46,5.46V332.09a5.47,5.47,0,0,0,5.46,5.46H238.4a5.47,5.47,0,0,0,5.46-5.46V60.66a5.47,5.47,0,0,0-5.46-5.46Z" style="fill:#ebebeb"></path><path d="M454.7,337.8H261.6a5.71,5.71,0,0,1-5.71-5.71V60.66A5.71,5.71,0,0,1,261.6,55H454.7a5.71,5.71,0,0,1,5.71,5.71V332.09A5.71,5.71,0,0,1,454.7,337.8ZM261.6,55.2a5.47,5.47,0,0,0-5.46,5.46V332.09a5.47,5.47,0,0,0,5.46,5.46H454.7a5.47,5.47,0,0,0,5.46-5.46V60.66a5.47,5.47,0,0,0-5.46-5.46Z" style="fill:#ebebeb"></path><rect y="382.4" width="500" height="0.25" style="fill:#ebebeb"></rect><path d="M157.54,356.62l12.71-.05a1.87,1.87,0,0,1,1.87,1.87v4.48a1.87,1.87,0,0,0,1.87,1.87h18.63a1.87,1.87,0,0,0,1.87-1.87V346.48h0a1.87,1.87,0,0,1,1.87-1.86h4a1.87,1.87,0,0,0,1.87-1.87v-9a1.87,1.87,0,0,1,1.86-1.87h6.51a1.87,1.87,0,0,1,1.86,1.87v2.64a1.87,1.87,0,0,0,1.87,1.87h.61a1.87,1.87,0,0,0,1.87-1.87v-9.77a1.87,1.87,0,0,1,1.86-1.87h6.44a1.87,1.87,0,0,1,1.87,1.87v9.79a1.87,1.87,0,0,0,1.87,1.86h2a1.86,1.86,0,0,0,1.86-1.86V316.7h0v-9.88h.4v6.09c0-.05.07-.11.11-.15L248,304.25c.31-.35.49,0,.49-.46V291.61l1-.73L268,277.61v-5.28h.4v5l.08-.05v59.16a1.87,1.87,0,0,0,1.86,1.87h2.44a1.87,1.87,0,0,0,1.87-1.86l.58-22.09a1.45,1.45,0,0,1,.15-.62l3.62-7.55h.27v-8.54a1.5,1.5,0,0,1,1.51-1.51h.72v-6.05h.4v6.05h.38a1.5,1.5,0,0,1,1.51,1.51V298h1.7v-.38a1.5,1.5,0,0,1,1.51-1.51h.64v-6.05h.4v6.05h.47a1.51,1.51,0,0,1,1.51,1.51v8.54h.27l3.62,7.55a1.61,1.61,0,0,1,.15.61l.59,22.07a1.87,1.87,0,0,0,1.87,1.87H300a1.87,1.87,0,0,1,1.86,1.87v2.57a1.87,1.87,0,0,0,1.87,1.86h2.44a1.87,1.87,0,0,1,1.84,1.55l6.5,34.16a2,2,0,0,1,0,.35,1.87,1.87,0,0,1-1.87,1.86H157.56C157.17,382.5,157.54,356.62,157.54,356.62Z" style="fill:#ebebeb"></path><path d="M292.35,382.47s35.15-30.34,48.4-30.86S449.9,382.5,449.9,382.5Z" style="fill:#f5f5f5"></path><path d="M172.9,382.47S103,358.81,92.27,358.28,45,381.9,45,381.9Z" style="fill:#f5f5f5"></path><path d="M427.62,360.79c-2.15-.39-6.27,3.59-8.3,2.76-1.55-.63-1.84-4.83-3.07-6-1.67-1.57-7.74-1.47-8.43-3.66-1.43-4.52,5.3-15,9.9-16.18,3.3-.82,8.54,5.72,11.72,6.91,3,1.09,10.33-.12,12.43,2.24,2.42,2.73,2,11.52,0,14.6-1.26,2-6.21,4.46-8.51,4C431.54,365.11,429.44,361.13,427.62,360.79Z" style="fill:#f0f0f0"></path><path d="M419.44,354.94a44.34,44.34,0,0,0-3.67-3l.11-.33,4,2.71,1.63-4.81.27.23s-1.31,3.55-1.1,4.81c.44,2.71,6.11,8.75,6.11,8.75h0s4.06-4.64,4.82-6.52c.62-1.56.86-6.66.86-6.66l.27.05-.35,6,6-4.93.1.33a71,71,0,0,0-6.17,5.43,57.62,57.62,0,0,0-3.88,6.39,4.43,4.43,0,0,0-.55,2.31l.48,16.89h-2.82L426,366.3a5.86,5.86,0,0,0-1-3C423.64,361,420.94,356.54,419.44,354.94Z" style="fill:#e0e0e0"></path><path d="M116.61,317.75c6.41-1.17,18.7,10.7,24.74,8.24,4.64-1.9,5.49-14.41,9.15-17.84,5-4.69,23.09-4.39,25.15-10.93,4.26-13.49-15.8-44.82-29.52-48.25-9.84-2.46-25.46,17.06-35,20.59-8.82,3.28-30.81-.35-37,6.69-7.22,8.15-5.84,34.37,0,43.56,3.76,5.91,18.52,13.28,25.39,11.89C104.91,330.61,111.18,318.75,116.61,317.75Z" style="fill:#f5f5f5"></path><path d="M104.44,300.3c-2.52-2.7-10.94-9-10.94-9l.31-1,12,8.09,4.86-14.33.8.66s-3.9,10.61-3.3,14.35c1.31,8.09,18.22,26.12,18.22,26.12h0s12.13-13.85,14.38-19.47c1.87-4.64,2.58-19.84,2.58-19.84l.8.13-1,17.79L161,289.11l.31,1s-14.48,11.49-18.4,16.2c-3,3.64-8.71,13.8-11.58,19.06a13.37,13.37,0,0,0-1.64,6.87l1.44,50.39h-8.41l1.4-48.45c.09-3.15-1.49-6.26-3.09-9C117,318.35,108.9,305.07,104.44,300.3Z" style="fill:#e0e0e0"></path><path d="M341,373.2s-10-1.15-11-3.88c-.83-2.21,4-5.94,4.62-8.23.43-1.77-.75-5.55-.2-7.3.48-1.54,3.45-3.64,3.81-5.22.17-.74-.72-2.27-.53-3,.42-1.69,2.56-5.76,4.28-5.49,2.71.44,3.87,7.5,4,10.24,0,1-1.32,2.92-1.22,3.95.19,1.84,3.62,4.65,3.55,6.49,0,.78-1.65,1.84-1.67,2.61,0,1.41,3.11,3.54,2.74,4.89C348.75,370.6,341,373.2,341,373.2Z" style="fill:#ebebeb"></path><path d="M341.41,358.09l-.28-11.15-.4,0-.47,18.16s-3.38,1-4.55,1.18a24.56,24.56,0,0,1-2.47,0v.22s2,.14,2.61.09c.32,0,1.27-.24,1.27-.24l-1.23,1.18.14.16,1.59-1.43,2.62-.65-.43,16.84H342l-.61-24.07Z" style="fill:#e0e0e0"></path><path d="M376,202.6c1.64-4,3-18.29-7.34-15.78s-14.94,6.74-21.65,7.77-10.32-4.94-17.56,0-11.58,0-18.94,4.45S370.21,216.75,376,202.6Z" style="fill:#f5f5f5"></path><path d="M423.46,144.21c-2.18-8.85-7.45-20.59-30.24-20.35s-12.8,14.93-25.86,15.35-10.52-6.13-22,3.55-9.38.49-18.8,4.93S428.55,165,423.46,144.21Z" style="fill:#f5f5f5"></path><path d="M161.24,183.82c1.9-4.82,3.46-21.88-8.49-18.88s-17.27,8.07-25,9.3-11.93-5.91-20.29,0-13.39.06-21.89,5.32S154.59,200.76,161.24,183.82Z" style="fill:#f0f0f0"></path></g><g id="freepik--Shadow--inject-214"><ellipse id="freepik--shadow--inject-214" cx="249.41" cy="413.03" rx="193.89" ry="16.64" style="fill:#f5f5f5"></ellipse></g><g id="freepik--Sparkles--inject-214"><path d="M192.57,139.33a19.44,19.44,0,0,0,.38-2.48c.35-2.81,2-5,4.11-5.41l1.52-.31a7.78,7.78,0,0,1-3.37-.7c-2.1-1.47-2.58-5.81-2.58-5.81s-.59,4.34-2.7,5.81a7.75,7.75,0,0,1-3.36.7l1.51.31c2.1.42,3.76,2.6,4.11,5.41A19.44,19.44,0,0,0,192.57,139.33Z" style="fill:#00B24B"></path><g style="opacity:0.7000000000000001"><path d="M192.57,139.33a19.44,19.44,0,0,0,.38-2.48c.35-2.81,2-5,4.11-5.41l1.52-.31a7.78,7.78,0,0,1-3.37-.7c-2.1-1.47-2.58-5.81-2.58-5.81s-.59,4.34-2.7,5.81a7.75,7.75,0,0,1-3.36.7l1.51.31c2.1.42,3.76,2.6,4.11,5.41A19.44,19.44,0,0,0,192.57,139.33Z" style="fill:#fff"></path></g><path d="M302.89,127.36a17.55,17.55,0,0,0,.38-2.48c.35-2.81,2-5,4.12-5.41l1.51-.31a7.78,7.78,0,0,1-3.37-.7c-2.1-1.47-2.58-5.81-2.58-5.81s-.59,4.34-2.69,5.81a7.81,7.81,0,0,1-3.37.7l1.51.31c2.1.42,3.77,2.6,4.11,5.41A21.79,21.79,0,0,0,302.89,127.36Z" style="fill:#00B24B"></path><g style="opacity:0.7000000000000001"><path d="M302.89,127.36a17.55,17.55,0,0,0,.38-2.48c.35-2.81,2-5,4.12-5.41l1.51-.31a7.78,7.78,0,0,1-3.37-.7c-2.1-1.47-2.58-5.81-2.58-5.81s-.59,4.34-2.69,5.81a7.81,7.81,0,0,1-3.37.7l1.51.31c2.1.42,3.77,2.6,4.11,5.41A21.79,21.79,0,0,0,302.89,127.36Z" style="fill:#fff"></path></g><path d="M301.27,88.49a21.25,21.25,0,0,0,.47-3.08c.43-3.48,2.5-6.17,5.09-6.7l1.88-.38s-2.94,0-4.17-.86c-2.6-1.82-3.2-7.2-3.2-7.2s-.73,5.38-3.33,7.2c-1.23.86-4.17.86-4.17.86l1.87.38c2.6.53,4.66,3.22,5.09,6.7A25.07,25.07,0,0,0,301.27,88.49Z" style="fill:#00B24B"></path><g style="opacity:0.7000000000000001"><path d="M301.27,88.49a21.25,21.25,0,0,0,.47-3.08c.43-3.48,2.5-6.17,5.09-6.7l1.88-.38s-2.94,0-4.17-.86c-2.6-1.82-3.2-7.2-3.2-7.2s-.73,5.38-3.33,7.2c-1.23.86-4.17.86-4.17.86l1.87.38c2.6.53,4.66,3.22,5.09,6.7A25.07,25.07,0,0,0,301.27,88.49Z" style="fill:#fff"></path></g><path d="M218.81,182a21.25,21.25,0,0,0,.47-3.08c.43-3.47,2.5-6.16,5.1-6.69l1.87-.39s-2.94,0-4.17-.86c-2.6-1.82-3.2-7.2-3.2-7.2s-.73,5.38-3.33,7.2c-1.23.86-4.17.86-4.17.86l1.87.39c2.6.53,4.66,3.22,5.09,6.69A25.07,25.07,0,0,0,218.81,182Z" style="fill:#00B24B"></path><g style="opacity:0.7000000000000001"><path d="M218.81,182a21.25,21.25,0,0,0,.47-3.08c.43-3.47,2.5-6.16,5.1-6.69l1.87-.39s-2.94,0-4.17-.86c-2.6-1.82-3.2-7.2-3.2-7.2s-.73,5.38-3.33,7.2c-1.23.86-4.17.86-4.17.86l1.87.39c2.6.53,4.66,3.22,5.09,6.69A25.07,25.07,0,0,0,218.81,182Z" style="fill:#fff"></path></g><path d="M284.7,172.85a33.77,33.77,0,0,0,.65-4.28c.6-4.83,3.46-8.57,7.08-9.31l2.61-.53s-4.1,0-5.8-1.2c-3.62-2.53-4.45-10-4.45-10s-1,7.48-4.63,10c-1.71,1.2-5.81,1.2-5.81,1.2l2.61.53c3.62.74,6.48,4.48,7.08,9.31A30.83,30.83,0,0,0,284.7,172.85Z" style="fill:#00B24B"></path><g style="opacity:0.7000000000000001"><path d="M284.7,172.85a33.77,33.77,0,0,0,.65-4.28c.6-4.83,3.46-8.57,7.08-9.31l2.61-.53s-4.1,0-5.8-1.2c-3.62-2.53-4.45-10-4.45-10s-1,7.48-4.63,10c-1.71,1.2-5.81,1.2-5.81,1.2l2.61.53c3.62.74,6.48,4.48,7.08,9.31A30.83,30.83,0,0,0,284.7,172.85Z" style="fill:#fff"></path></g><path d="M192.57,92a32.7,32.7,0,0,0,.66-4.28c.59-4.83,3.46-8.57,7.07-9.31l2.61-.53s-4.09,0-5.8-1.2c-3.62-2.53-4.45-10-4.45-10s-1,7.48-4.63,10c-1.7,1.2-5.8,1.2-5.8,1.2l2.61.53c3.61.74,6.48,4.48,7.08,9.31A33.77,33.77,0,0,0,192.57,92Z" style="fill:#00B24B"></path><g style="opacity:0.7000000000000001"><path d="M192.57,92a32.7,32.7,0,0,0,.66-4.28c.59-4.83,3.46-8.57,7.07-9.31l2.61-.53s-4.09,0-5.8-1.2c-3.62-2.53-4.45-10-4.45-10s-1,7.48-4.63,10c-1.7,1.2-5.8,1.2-5.8,1.2l2.61.53c3.61.74,6.48,4.48,7.08,9.31A33.77,33.77,0,0,0,192.57,92Z" style="fill:#fff"></path></g></g><g id="freepik--character-5--inject-214"><path d="M325.64,234.54s-3.2-1.09-2.9.91C323,237,323.44,234.71,325.64,234.54Z" style="fill:#263238"></path><path d="M336.14,228.13s6.19-.93,6.53,1-1.64,1.5-1.64,1.5,2.63,1.16,1.64,2.21-4.62-.48-4.62-.48Z" style="fill:#263238"></path><path d="M336.14,228.13s6.19-.93,6.53,1-1.64,1.5-1.64,1.5,2.63,1.16,1.64,2.21-4.62-.48-4.62-.48Z" style="opacity:0.30000000000000004"></path><path d="M364.44,269.25l2.92-2.55a10.63,10.63,0,0,1,1.46-2.59c.94-1.19,5.15-2.07,5.15-2.07s.36,3.49-.81,4.71a12.85,12.85,0,0,1-3.77,2.19l-3.33,3.45Z" style="fill:#b55b52"></path><path d="M370.15,267.3l-3.7-.64a1.36,1.36,0,0,1-1.1-1.72l2.62-10a.73.73,0,0,1,.81-.52l4.55.78a1.37,1.37,0,0,1,1.11,1.73L372,266.08A1.69,1.69,0,0,1,370.15,267.3Z" style="fill:#00B24B"></path><path d="M370.15,267.3l-3.7-.64a1.36,1.36,0,0,1-1.1-1.72l2.62-10a.73.73,0,0,1,.81-.52l4.55.78a1.37,1.37,0,0,1,1.11,1.73L372,266.08A1.69,1.69,0,0,1,370.15,267.3Z" style="opacity:0.2"></path><path d="M370.31,267.52l-3.69-.63a1.37,1.37,0,0,1-1.11-1.73l2.63-10a.73.73,0,0,1,.8-.52l4.55.78a1.36,1.36,0,0,1,1.11,1.73l-2.41,9.18A1.68,1.68,0,0,1,370.31,267.52Z" style="fill:#263238"></path><path d="M370.31,267.52l-3.69-.63a1.37,1.37,0,0,1-1.11-1.73l2.63-10a.73.73,0,0,1,.8-.52l4.55.78a1.36,1.36,0,0,1,1.11,1.73l-2.41,9.18A1.68,1.68,0,0,1,370.31,267.52Z" style="fill:#fff;opacity:0.5"></path><path d="M373.21,261.64l-.75.09a.87.87,0,0,0-.77.71l-.58,3.19a.87.87,0,0,0,.66,1l.63.14a.75.75,0,0,0,.91-.59l.74-3.65A.76.76,0,0,0,373.21,261.64Z" style="fill:#b55b52"></path><path d="M369.85,257.88l-1.62-.28a.65.65,0,0,1-.52-.82l.42-1.63a.74.74,0,0,1,.83-.53l1.67.28a.65.65,0,0,1,.53.82l-.42,1.58A.8.8,0,0,1,369.85,257.88Z" style="fill:#fff;opacity:0.30000000000000004"></path><path d="M369.74,257.72l-1.47-.25a.66.66,0,0,1-.53-.82l.38-1.45a.8.8,0,0,1,.89-.58l1.47.26a.64.64,0,0,1,.53.81l-.38,1.45A.8.8,0,0,1,369.74,257.72Z" style="fill:#263238"></path><path d="M369.74,257.72l-1.47-.25a.66.66,0,0,1-.53-.82l.38-1.45a.8.8,0,0,1,.89-.58l1.47.26a.64.64,0,0,1,.53.81l-.38,1.45A.8.8,0,0,1,369.74,257.72Z" style="fill:#fff;opacity:0.1"></path><path d="M346.09,251.57s3.26-.32,5.4,4,5,13.43,6.76,13.27,7.46-1.35,7.46-1.35.21.84,2.35,3.9c0,0-4.95,4.53-10.65,4.53-5,0-8.16-7.12-8.16-7.12S344.36,256.16,346.09,251.57Z" style="fill:#263238"></path><path d="M346.09,251.57s3.26-.32,5.4,4,5,13.43,6.76,13.27,7.46-1.35,7.46-1.35.21.84,2.35,3.9c0,0-4.95,4.53-10.65,4.53-5,0-8.16-7.12-8.16-7.12S344.36,256.16,346.09,251.57Z" style="fill:#fff;opacity:0.7000000000000001"></path><path d="M348.55,266.82c.41,1.2.7,1.94.7,1.94a37.66,37.66,0,0,0,3.65,5.16c-1.26-5.67-4.07-14.47-4.07-14.47Z" style="opacity:0.1"></path><path d="M330.32,250.44c1.81-2.1,1.26-6.27.7-9.15l5.75,4.92c-.59,2.34-.68,3.7,2.68,4.51l4,.84,1,4.12s-1.89,2.19-2.65,2.44a49.28,49.28,0,0,1-5.7.31l-3.22-.51s-4.12-2.75-4.22-3a23.78,23.78,0,0,0-1.81-2l-.28-1.61,3.17-.55A1,1,0,0,0,330.32,250.44Z" style="fill:#b55b52"></path><path d="M333.35,243.27l3.38,2.94a9.3,9.3,0,0,0-.29,1.66c-1.29-.19-3.3-1.28-3.58-2.68A4,4,0,0,1,333.35,243.27Z" style="isolation:isolate;opacity:0.2"></path><path d="M327.3,236.66c1.29,4.74,1.74,6.76,4.67,8.72,4.42,2.94,9.95.32,10.1-4.7.13-4.53-2-11.54-7.1-12.44a6.69,6.69,0,0,0-7.81,5.34A6.82,6.82,0,0,0,327.3,236.66Z" style="fill:#b55b52"></path><path d="M336.15,237.27c.09.39.36.66.61.61s.4-.41.32-.8-.36-.67-.61-.62S336.1,236.89,336.15,237.27Z" style="fill:#263238"></path><path d="M340.56,236.36c.09.4.36.67.61.62s.4-.42.32-.81-.35-.66-.61-.61S340.49,236,340.56,236.36Z" style="fill:#263238"></path><path d="M339.35,237.35a10.93,10.93,0,0,0,1.92,2.21,1.83,1.83,0,0,1-1.35.55Z" style="fill:#ed893e"></path><path d="M338.93,242.66a3,3,0,0,0,.59-.08.11.11,0,0,0,.09-.13h0a.12.12,0,0,0-.14-.09,3.16,3.16,0,0,1-2.77-.69.14.14,0,0,0-.17,0,.12.12,0,0,0,0,.17A3.25,3.25,0,0,0,338.93,242.66Z" style="fill:#263238"></path><path d="M334.1,235.86a.23.23,0,0,0,.25-.12,2.78,2.78,0,0,1,1.93-1.08.24.24,0,0,0,.22-.26.23.23,0,0,0-.25-.21h0a3.2,3.2,0,0,0-2.3,1.33.23.23,0,0,0,.09.31h0S334.07,235.85,334.1,235.86Z" style="fill:#263238"></path><path d="M341.66,233.73a.23.23,0,0,0,.18-.15.24.24,0,0,0-.15-.3,2.27,2.27,0,0,0-2.14.26.22.22,0,0,0-.06.31h0a.22.22,0,0,0,.32,0h0a1.91,1.91,0,0,1,1.69-.18A.22.22,0,0,0,341.66,233.73Z" style="fill:#263238"></path><path d="M333.9,294c2.18,19.32,8.32,35.86,10,48,1.71,12,.16,13.65,9.4,50.65l7.93-2-5.89-51.31s-2.9-22.47-5.24-50.83C350.14,288.56,333.39,289.5,333.9,294Z" style="fill:#263238"></path><path d="M333.9,294c2.18,19.32,8.32,35.86,10,48,1.71,12,.16,13.65,9.4,50.65l7.93-2-5.89-51.31s-2.9-22.47-5.24-50.83C350.14,288.56,333.39,289.5,333.9,294Z" style="fill:#fff;opacity:0.2"></path><path d="M337.68,314.89c1.33,5.7,2.75,11,3.94,15.88,2.49-13.12.85-33.4.85-33.4Z" style="opacity:0.1"></path><path d="M326.56,290.86c-2.57,19.27-1,36.77-1.89,49-.93,12.55-2.09,15.3-2.09,53.44h8.17l5.66-53.23s4.19-23.05,8.8-51.13C345.21,288.94,327.16,286.34,326.56,290.86Z" style="fill:#263238"></path><path d="M326.56,290.86c-2.57,19.27-1,36.77-1.89,49-.93,12.55-2.09,15.3-2.09,53.44h8.17l5.66-53.23s4.19-23.05,8.8-51.13C345.21,288.94,327.16,286.34,326.56,290.86Z" style="fill:#fff;opacity:0.2"></path><path d="M327.86,251.05s2.86,5.9,9.58,5.29,4.07-5.29,4.07-5.29,4.89-.41,7.33,1.42,1.22,36,1.22,36a82.88,82.88,0,0,1-23.62,1s-6.31-36.83-2.45-37.65Z" style="fill:#263238"></path><path d="M327.86,251.05s2.86,5.9,9.58,5.29,4.07-5.29,4.07-5.29,4.89-.41,7.33,1.42,1.22,36,1.22,36a82.88,82.88,0,0,1-23.62,1s-6.31-36.83-2.45-37.65Z" style="fill:#fff;opacity:0.7000000000000001"></path><polygon points="324.32 390.55 324.06 398.7 328.35 398.51 328.99 391.13 324.32 390.55" style="fill:#b55b52"></polygon><path d="M329.48,399.55a.12.12,0,0,1-.09-.1.12.12,0,0,1,.05-.12c.08,0,1.81-1,2.64-.8a.62.62,0,0,1,.37.28.45.45,0,0,1,0,.51,2.11,2.11,0,0,1-1.46.38A9.66,9.66,0,0,1,329.48,399.55Zm.38-.16c.92.12,2.18.12,2.41-.21,0,0,.06-.11,0-.25a.31.31,0,0,0-.23-.17.78.78,0,0,0-.22,0A5.53,5.53,0,0,0,329.86,399.39Z" style="fill:#00B24B"></path><path d="M329.42,399.54a.09.09,0,0,1-.05-.1,3.34,3.34,0,0,1,.77-1.92.91.91,0,0,1,.66-.2c.32,0,.42.2.43.33.11.56-1.09,1.63-1.68,1.89h-.05A.08.08,0,0,1,329.42,399.54Zm1.3-2a.61.61,0,0,0-.41.15,2.79,2.79,0,0,0-.66,1.52c.61-.36,1.4-1.2,1.37-1.54,0,0,0-.11-.23-.13Z" style="fill:#00B24B"></path><path d="M329,398.85h-5.42a.45.45,0,0,0-.43.34l-1,4.4a.72.72,0,0,0,.54.87l.15,0c2,0,3.69-.13,6.12-.12,2.87,0,2.14.35,5.52.41,2,0,2.41-2.28,1.55-2.39-3.95-.51-4.35-1.7-5.87-3.12A1.79,1.79,0,0,0,329,398.85Z" style="fill:#263238"></path><polygon points="324.28 391.84 324.18 394.89 328.64 395.1 328.86 392.65 324.28 391.84" style="opacity:0.1"></polygon><polygon points="321.81 390.07 322.03 393.62 331.65 394.14 332.37 390.5 321.81 390.07" style="fill:#263238"></polygon><polygon points="321.81 390.07 322.03 393.62 331.65 394.14 332.37 390.5 321.81 390.07" style="fill:#fff;opacity:0.7000000000000001"></polygon><polygon points="354.69 389.46 356.2 397.47 360.35 396.35 359.36 389.01 354.69 389.46" style="fill:#b55b52"></polygon><path d="M361.33,396.31a.12.12,0,0,1-.12-.07.11.11,0,0,1,0-.13c.06-.07,1.39-1.55,2.25-1.6a.57.57,0,0,1,.43.15.41.41,0,0,1,.17.48c-.11.31-.67.62-1.26.82A9.37,9.37,0,0,1,361.33,396.31Zm.31-.27c.91-.19,2.09-.59,2.21-1,0-.05,0-.13-.1-.24a.35.35,0,0,0-.27-.08.85.85,0,0,0-.23,0A5.3,5.3,0,0,0,361.64,396Z" style="fill:#00B24B"></path><path d="M361.26,396.32a.11.11,0,0,1-.08-.08,3.44,3.44,0,0,1,.12-2.07.91.91,0,0,1,.56-.4c.32-.07.47.05.52.18.28.49-.51,1.89-1,2.33l-.05,0A.11.11,0,0,1,361.26,396.32Zm.6-2.31a.6.6,0,0,0-.34.27,2.67,2.67,0,0,0-.14,1.65c.46-.54.94-1.59.8-1.9,0,0-.05-.1-.26,0l-.06,0Z" style="fill:#00B24B"></path><path d="M360.63,395.81l-5.14,1.71a.44.44,0,0,0-.3.46l.47,4.49a.72.72,0,0,0,.79.65.4.4,0,0,0,.15,0c1.84-.65,3.45-1.3,5.76-2.07,2.72-.9,2.14-.35,5.35-1.37,1.94-.62,1.56-2.93.71-2.76-3.9.78-4.66-.22-6.55-1.08A1.76,1.76,0,0,0,360.63,395.81Z" style="fill:#263238"></path><polygon points="354.92 390.73 355.49 393.73 359.89 392.96 359.57 390.52 354.92 390.73" style="opacity:0.1"></polygon><polygon points="352.13 389.54 353.12 392.96 362.62 391.36 362.52 387.65 352.13 389.54" style="fill:#263238"></polygon><polygon points="352.13 389.54 353.12 392.96 362.62 391.36 362.52 387.65 352.13 389.54" style="fill:#fff;opacity:0.7000000000000001"></polygon><path d="M327.25,251a1.79,1.79,0,0,1,1.93-.38,8.8,8.8,0,0,0,7.32,5.4c5.6.55,4.3-5.32,4.3-5.32a2.38,2.38,0,0,1,1.77.3s1.26,5.88-5.28,5.88C329.66,256.89,327.25,251,327.25,251Z" style="fill:#263238"></path><g style="opacity:0.8"><path d="M327.25,251a1.79,1.79,0,0,1,1.93-.38,8.8,8.8,0,0,0,7.32,5.4c5.6.55,4.3-5.32,4.3-5.32a2.38,2.38,0,0,1,1.77.3s1.26,5.88-5.28,5.88C329.66,256.89,327.25,251,327.25,251Z" style="fill:#fff"></path></g><path d="M326.82,255.59l-4.06,1.17a109.75,109.75,0,0,0,.59,12A49.28,49.28,0,0,0,326.82,255.59Z" style="opacity:0.1"></path><polygon points="318.42 287.63 323.7 292.1 325.81 289.62 320.8 285.02 318.42 287.63" style="fill:#b55b52"></polygon><polygon points="323.7 291.64 325.79 296.43 329.4 292.82 325.67 289.33 323.7 291.64" style="fill:#b55b52"></polygon><polygon points="325.79 296.43 328.3 298.21 330.81 295.68 329.4 292.82 325.79 296.43" style="fill:#b55b52"></polygon><path d="M328.13,258.26s-13,13.65-12,15.66c0,0,5.81,11.21,8.08,11.79,0,0,0,0,0,0a7.54,7.54,0,0,1-3.39,4.92s-15.35-12.5-13.1-17.86,11-18,14.05-20.1C327,249.22,329.76,256.71,328.13,258.26Z" style="fill:#263238"></path><path d="M328.13,258.26s-13,13.65-12,15.66c0,0,5.81,11.21,8.08,11.79,0,0,0,0,0,0a7.54,7.54,0,0,1-3.39,4.92s-15.35-12.5-13.1-17.86,11-18,14.05-20.1C327,249.22,329.76,256.71,328.13,258.26Z" style="fill:#fff;opacity:0.7000000000000001"></path><path d="M330.45,233.41s8.94.49,9.39-1.79a1.64,1.64,0,0,0-1.72-2.17s2.91-.79,2.07-2.68-5.2,0-5.2,0,.92-2.06-.65-2.81-3.89,3.56-3.89,3.56-1.89-3.9-3.13,2.95c0,0-5.11,4.41-1,9.27,3.22,3.83,3.44,3.53,3.44,3.53l-.11-3.89a1.64,1.64,0,0,0,.83-1.72C330.34,236.35,330.45,233.41,330.45,233.41Z" style="fill:#263238"></path><path d="M331.68,240.7s4.45-2.83,7.37-3,2.78.21,2.78.21a6.76,6.76,0,0,1-3.76,9s-4.68-.14-6.39-1.76A6.76,6.76,0,0,0,331.68,240.7Z" style="fill:#263238"></path><path d="M331.68,240.7s4.45-2.83,7.37-3,2.78.21,2.78.21a6.76,6.76,0,0,1-3.76,9s-4.68-.14-6.39-1.76A6.76,6.76,0,0,0,331.68,240.7Z" style="fill:#fff;opacity:0.7000000000000001"></path><path d="M332.49,241.36s4.76-2.64,6.76-2.67a5.4,5.4,0,0,1,2.82.52,8.48,8.48,0,0,1,.14,1.59s-1.64-1.33-9.64,1.56Z" style="fill:#fff;opacity:0.6000000000000001"></path><path d="M332.57,242.85s6.92-2.45,9.44-1a7.91,7.91,0,0,1-1.24,2.76s-2.38-1.3-8.28-.61Z" style="fill:#fff;opacity:0.6000000000000001"></path><path d="M332.33,244.3s6.55-.42,7.49,1l-1.1.81a13.78,13.78,0,0,1-6.53-1.38Z" style="fill:#fff;opacity:0.6000000000000001"></path><path d="M332,245.34c-3.06-2.67-3.85-4.67-3.77-6.37a.61.61,0,0,1,.33-.57c.9-.47,3.26,2.15,3.54,2.33l-.16.25c-.73-.46-2.61-2.65-3.24-2.32a.34.34,0,0,0-.17.33c-.08,1.6,1.21,3.89,3.52,6Z" style="fill:#263238"></path><path d="M326.77,240.62a3.51,3.51,0,0,0,2.15,1.6c1.2.28,1.76-.8,1.39-1.92s-1.38-2.36-2.56-2.17a1.59,1.59,0,0,0-1.26,1.86A1.49,1.49,0,0,0,326.77,240.62Z" style="fill:#b55b52"></path></g><g id="freepik--character-4--inject-214"><path d="M428.75,301s-2.23-.65-2.38-1.2l-1.52-3.88,1.92-2.34,2.29,1.73a7.69,7.69,0,0,1,2.1,2.47h0a1.48,1.48,0,0,1,.08,2.08l-.69.76A1.69,1.69,0,0,1,428.75,301Z" style="fill:#ffc3bd"></path><path d="M416.21,279.34c-.22-4.73-.81-6.62-1-10.85-.29-5.35-1.54-10.13-7.09-10.52-.56,0,1.84,21.66,3.44,24.64a176,176,0,0,0,13.33,13.3,13.18,13.18,0,0,0,2.32-2C423.07,290.05,421,283.83,416.21,279.34Z" style="fill:#ffc3bd"></path><g id="freepik--freepik--Character--inject-5--inject-214"><path d="M397,318.9c1,4.16,2.33,8.78,4,13.81.49-10.13,3.23-23.69,3.32-24.15Z"></path><path d="M406,303.41l-12.22,51.93-13.2,41.19-5.25-1a181.48,181.48,0,0,1,4-31.09c.82-3.5,2.82-7.24,3.25-10.06.38-2.48-.12-4.24.16-10,.33-7,1.26-16.18,3.7-22.84,0,0-4.79-9.34-.06-18.72Z" style="fill:#ffc3bd"></path><polygon points="378.57 404.65 374.77 403.35 375.16 396.78 375.81 390.78 381.78 391.44 380.08 398.43 378.57 404.65" style="fill:#ffc3bd"></polygon><path d="M382.15,413.73a6.58,6.58,0,0,0-1.77-1.64h0s-1.66-2.77-1-9.68l-2.72-1.5a2.58,2.58,0,0,0-2.91.35,1.3,1.3,0,0,0-.28.34,16.69,16.69,0,0,0-.85,2,62.83,62.83,0,0,0-1.91,7.28l.52.15,1.38-4.53c.45-1.54,1.2.6,1.11,2.36s.19,3.73,3.58,4.68C381.21,414.69,382.91,415,382.15,413.73Z" style="fill:#263238"></path><path d="M379.45,399.9s-.16,3.19,0,6.81a14.55,14.55,0,0,0,1,5.38s-2.67-.2-3.33-2.2-.67-8.24-3.34-8.6a6.4,6.4,0,0,1,1.06-1C375.39,399.79,379.45,399.9,379.45,399.9Z" style="fill:#ffc3bd"></path><path d="M412.91,301.2l5.1,52.73-.9,43.25-5.31.56a181.29,181.29,0,0,1-5-31c-.22-3.58.63-7.74.24-10.57-.35-2.48-1.33-4-2.71-9.63-1.67-6.78-3.41-15.87-3-22.95,0,0-7.26-7.59-5.41-17.92Z" style="fill:#ffc3bd"></path><polygon points="417.51 405.53 413.5 405.37 411.99 398.96 410.91 393.02 416.81 391.95 417.19 399.14 417.51 405.53" style="fill:#ffc3bd"></polygon><path d="M423.53,413.21a6.52,6.52,0,0,0-2.16-1.07h0s-2.38-2.18-3.74-9l-3-.66a2.57,2.57,0,0,0-2.69,1.17,1.23,1.23,0,0,0-.17.41,16.26,16.26,0,0,0-.24,2.2,62.93,62.93,0,0,0,.26,7.52h.54l0-4.73c0-1.61,1.32.23,1.74,1.93s1.23,3.53,4.76,3.47C422.91,414.39,424.61,414.17,423.53,413.21Z" style="fill:#263238"></path><path d="M417,400.72s.76,3.11,1.92,6.54a14.47,14.47,0,0,0,2.45,4.88s-2.61.57-3.82-1.16-3-7.71-5.66-7.29a6.16,6.16,0,0,1,.73-1.27C413.07,401.77,417,400.72,417,400.72Z" style="fill:#ffc3bd"></path><path d="M418.64,343.62s-17.37-.09-25.39-.06-13.47.06-13.47.06,1.19-22.84,4-34.48S388.88,294,388.88,294s24.95-.56,24.95.91Z" style="fill:#263238"></path><g style="opacity:0.30000000000000004"><path d="M418.64,343.62s-17.37-.09-25.39-.06-13.47.06-13.47.06,1.19-22.84,4-34.48S388.88,294,388.88,294s24.95-.56,24.95.91Z" style="fill:#fff"></path></g><path d="M413.39,293.25c-2.5,1.46-15.13.86-23.21-.19.49-6.47-.32-13.87-4.7-28.43a5.38,5.38,0,0,1,4.87-7c1-.09,2-.17,3-.22a85.34,85.34,0,0,1,11.08,0c1.18.11,2.46.25,3.65.4s3,2.73,4.43,4.9a15.1,15.1,0,0,1,2.57,10.15C414.74,278.66,413.94,290,413.39,293.25Z" style="fill:#263238"></path><path d="M413.39,293.25c-2.5,1.46-15.13.86-23.21-.19.49-6.47-.32-13.87-4.7-28.43a5.38,5.38,0,0,1,4.87-7c1-.09,2-.17,3-.22a85.34,85.34,0,0,1,11.08,0c1.18.11,2.46.25,3.65.4s3,2.73,4.43,4.9a15.1,15.1,0,0,1,2.57,10.15C414.74,278.66,413.94,290,413.39,293.25Z" style="fill:#fff;opacity:0.7000000000000001"></path><path d="M413.83,294.8a109.86,109.86,0,0,1-24.52,0,.6.6,0,0,1-.45-.71.19.19,0,0,1,0-.07c.2-.48.4-.94.59-1.42a.53.53,0,0,1,.53-.32,108.08,108.08,0,0,0,23.58,0,.52.52,0,0,1,.58.45v0c.05.49.1,1,.14,1.47a.53.53,0,0,1-.48.6Z" style="fill:#263238"></path><path d="M401.48,241.18c.4,2.66,3.77,11.82,3.82,12.08-.65,0-1.32-.16-2-.19-.25-.69-.88-2.29-1.13-3-.1.53.45,2.21.36,2.74-.7-.1-1.52-.34-2.21-.44l-.62-3.22a12.38,12.38,0,0,0,.08,3c-.23,0-.88-.41-.88-.41s-.2-2.05-.3-3.18c-.05.86-.2,1.89-.25,2.74-2.2-1.17-2.75-3.37-2.92-6.42a14.41,14.41,0,0,1,1.18-7.27c1.45-2.91,2.81-5.32,5.95-6.14A85.85,85.85,0,0,0,401.48,241.18Z" style="fill:#263238"></path><path d="M394.67,246c.9,3.34,2,9.5-.16,11.74a34.12,34.12,0,0,0,9,4.52c1.82-.46,1.44-4.52,1.44-4.52-3.81-.9-3.92-3.67-3.46-6.27Z" style="fill:#ffc3bd"></path><path d="M397.44,248.25l4,3.23a11.48,11.48,0,0,0-.18,1.85c-1.44-.2-3.52-1.77-3.79-3.27A5.24,5.24,0,0,1,397.44,248.25Z" style="opacity:0.2"></path><path d="M391.8,239.3c1,5.41,1.34,7.72,4.44,10.31,4.65,3.89,11,1.84,11.66-3.67.56-5-1.2-13-6.78-14.78a7.07,7.07,0,0,0-9.32,8.14Z" style="fill:#ffc3bd"></path><path d="M401.52,246.06a.13.13,0,0,1-.12-.09.12.12,0,0,1,.09-.15l0,0a5.33,5.33,0,0,1,2.91-.06.12.12,0,0,1,.09.15.12.12,0,0,1-.15.09,5.05,5.05,0,0,0-2.78.06l0,0Z" style="fill:#263238"></path><path d="M401.2,240.54c.13.44.47.75.76.69s.41-.48.29-.92-.48-.76-.76-.69S401.08,240.09,401.2,240.54Z" style="fill:#263238"></path><path d="M405.8,239.43c.13.44.47.75.76.69s.41-.48.28-.92-.47-.75-.75-.69S405.67,239,405.8,239.43Z" style="fill:#263238"></path><path d="M406,238.56l1-.54S406.64,239,406,238.56Z" style="fill:#263238"></path><path d="M404.51,240.49a13.8,13.8,0,0,0,2.4,2.49,1.86,1.86,0,0,1-1.48.64Z" style="fill:#ed847e"></path><path d="M395.43,247.69c.31,2.5.61,4.61.61,4.73-.63-.17-3.1-.56-3.73-.73a15.48,15.48,0,0,1-.67-1.85s0,1.29,0,1.46c-.66-.24-1.42-.64-2.08-.88l-.11-1.75a11.08,11.08,0,0,1-.36,1.41,1.7,1.7,0,0,1-1-.74,8.89,8.89,0,0,0,.34-1.21,2.42,2.42,0,0,1-.59.83c-2.28-1.89-2-4.73-1.24-8.66.35-1.86,3.31-11,9.4-9.9-.15.33-.31.71-.46,1.11C393.53,236.61,394.75,242.27,395.43,247.69Z" style="fill:#263238"></path><path d="M392.12,244.78a3.82,3.82,0,0,0,2.54,1.72c1.28.17,1.66-1.32,1.06-2.71-.55-1.24-1.85-2.83-3-2.37S391.36,243.59,392.12,244.78Z" style="fill:#ffc3bd"></path><path d="M399.14,238.77a.24.24,0,0,0,.14-.14,2,2,0,0,1,1.39-1.25.24.24,0,0,0,.21-.28v0a.29.29,0,0,0-.33-.21,2.44,2.44,0,0,0-1.78,1.56.27.27,0,0,0,.16.35A.3.3,0,0,0,399.14,238.77Z" style="fill:#263238"></path><path d="M406.82,236.81a.25.25,0,0,0,.24-.26.24.24,0,0,0-.11-.2,2.83,2.83,0,0,0-2.41-.69.25.25,0,0,0-.17.31v0a.3.3,0,0,0,.34.19,2.27,2.27,0,0,1,1.91.56A.29.29,0,0,0,406.82,236.81Z" style="fill:#263238"></path><path d="M401.37,239.67l1-.54S402,240.08,401.37,239.67Z" style="fill:#263238"></path><path d="M366.37,305.94l1.54-1a2.1,2.1,0,0,0,1-1.66l.46-4.11c.08-1.28-.74-1.59-1.74-2.39l-.62-.5c-2.66,1.43-4.49,4.94-4.49,4.94l-.64.94a1.79,1.79,0,0,0,.42,2.48h0l1.85,1.27A2,2,0,0,0,366.37,305.94Z" style="fill:#ffc3bd"></path><path d="M391.64,263.85c-.67,3.09-12.49,16-12.49,16-.24,3.75-5.51,12-9.78,19L365.91,297c3-7.75,4.2-14.37,8.69-21.35,3.8-5.91,4.35-6.22,8.15-12.13a13.93,13.93,0,0,1,3.64-3.89S393.46,255.45,391.64,263.85Z" style="fill:#ffc3bd"></path></g><path d="M394.9,238a3,3,0,0,1,2.42-.53c-.08-1.16-.07-2.48-.15-3.64a10.37,10.37,0,0,1,1.4,3.45c0,.13,1.67.2.93-1.39-.26-.55-.58-1.93-1.17-2.19a6,6,0,0,1,3.38,3.32,4.46,4.46,0,0,1,2.38-.23,3.09,3.09,0,0,0-1.22-2.94,3.55,3.55,0,0,1,2.16,2.91l2,0a7.91,7.91,0,0,0-3.13-5.05c-4.53-3.07-8.3-1.79-9.09-.8a5.16,5.16,0,0,0-1,3.59A12.17,12.17,0,0,0,394.9,238Z" style="fill:#263238"></path><path d="M413.83,294.8a109.86,109.86,0,0,1-24.52,0,.6.6,0,0,1-.45-.71.19.19,0,0,1,0-.07c.2-.48.4-.94.59-1.42a.53.53,0,0,1,.53-.32,108.08,108.08,0,0,0,23.58,0,.52.52,0,0,1,.58.45v0c.05.49.1,1,.14,1.47a.53.53,0,0,1-.48.6Z" style="fill:#fff;opacity:0.8"></path></g><g id="freepik--character-3--inject-214"><path d="M244.61,254.42S218.12,287.61,213.77,297c-4.25,9.2-15.24,41.95-15.24,41.95l8.11-.38s18.51-24.9,18-36.79c0,0,46.48-30,31.86-47.87Z" style="fill:#00B24B"></path><g style="opacity:0.2"><path d="M244.61,254.42S218.12,287.61,213.77,297c-4.25,9.2-15.24,41.95-15.24,41.95l8.11-.38s18.17-24.08,18-36.79c0,0,46.48-30,31.86-47.87Z" style="fill:#fff"></path></g><polygon points="205.78 338.13 201.99 347.57 197.19 345.19 200.16 336.45 205.78 338.13" style="fill:#ff887b"></polygon><path d="M194.08,345c-.75-.16-1.5-.46-1.68-.84a.56.56,0,0,1,.14-.62.79.79,0,0,1,.52-.24c1.07-.07,2.93,1.58,3,1.66a.14.14,0,0,1,0,.16.14.14,0,0,1-.14.09A10.94,10.94,0,0,1,194.08,345Zm-.71-1.38a1,1,0,0,0-.29,0,.37.37,0,0,0-.32.14c-.14.15-.12.25-.09.3.2.46,1.72.79,2.88.88A6.72,6.72,0,0,0,193.37,343.61Z" style="fill:#00B24B"></path><path d="M196,345.2l-.06,0c-.66-.47-1.84-2.09-1.56-2.75,0-.16.21-.33.61-.29a1.09,1.09,0,0,1,.75.41,4.2,4.2,0,0,1,.45,2.55.14.14,0,0,1-.09.11A.16.16,0,0,1,196,345.2Zm-1-2.77-.08,0c-.26,0-.3.07-.32.1-.12.41.62,1.63,1.27,2.23a3.39,3.39,0,0,0-.41-2,.78.78,0,0,0-.46-.29Z" style="fill:#00B24B"></path><path d="M196.77,344.49l6.61,1.38a.54.54,0,0,1,.43.53l.07,5.62a.91.91,0,0,1-.89.93l-.19,0c-2.38-.54-4.47-1.12-7.43-1.73-3.51-.74-2.7-.13-6.83-.94-2.49-.48-2.35-3.4-1.27-3.32,4.94.41,5.74-.94,8-2.27A2.16,2.16,0,0,1,196.77,344.49Z" style="fill:#263238"></path><polygon points="205.18 339.62 203.76 343.16 198.56 341.15 199.55 338.25 205.18 339.62" style="opacity:0.2"></polygon><polygon points="209.09 337.53 207.9 341.23 197.56 339.18 197.78 335.13 209.09 337.53" style="fill:#00B24B"></polygon><path d="M240.9,289.06l8.6-17.83.49,9.66S248.35,282.39,240.9,289.06Z" style="isolation:isolate;opacity:0.2"></path><path d="M254.23,259.4c-2.17,2.74-9.7,25.86-11.83,38.9-2.24,13.72.14,12.27,9.52,20.68s24.73,19.56,24.73,19.56l5.76-5.08s-12.11-13.55-27-28.31c0,0,20.67-32.69,14.81-45.52C270.2,259.63,260.31,259.73,254.23,259.4Z" style="fill:#00B24B"></path><path d="M254.23,259.4c-2.17,2.74-9.7,25.86-11.83,38.9-2.24,13.72.14,12.27,9.52,20.68s24.73,19.56,24.73,19.56l5.76-5.08s-12.11-13.55-27-28.31c0,0,20.67-32.69,14.81-45.52C270.2,259.63,260.31,259.73,254.23,259.4Z" style="fill:#fff;opacity:0.2"></path><polygon points="279.52 332.06 286.26 339.67 285.13 345.85 275.5 336.33 279.52 332.06" style="fill:#ff887b"></polygon><path d="M283.22,347.62c-.26.72-.67,1.42-1.07,1.54a.54.54,0,0,1-.59-.23.76.76,0,0,1-.16-.55c.09-1.07,2-2.67,2.07-2.74a.15.15,0,0,1,.17,0,.15.15,0,0,1,.07.15A10.62,10.62,0,0,1,283.22,347.62Zm-1.47.51a1.31,1.31,0,0,0-.06.27.39.39,0,0,0,.1.34c.13.17.22.16.29.14.47-.13,1-1.59,1.28-2.72A7,7,0,0,0,281.75,348.13Z" style="fill:#00B24B"></path><path d="M283.7,345.8a.14.14,0,0,1,0,.06c-.57.58-2.34,1.51-2.95,1.15-.15-.07-.3-.26-.2-.66a1.14,1.14,0,0,1,.52-.68,4.23,4.23,0,0,1,2.58-.07.13.13,0,0,1,.1.11A.14.14,0,0,1,283.7,345.8Zm-2.87.56,0,.07c-.07.26,0,.31.06.34.38.18,1.7-.38,2.39-.94a3.45,3.45,0,0,0-2.06.12.71.71,0,0,0-.35.41Z" style="fill:#00B24B"></path><path d="M283.12,344.89l2.33-6.34a.55.55,0,0,1,.58-.35l5.58.75a.9.9,0,0,1,.78,1,1.29,1.29,0,0,1,0,.19c-.88,2.27-1.76,4.25-2.8,7.1-1.23,3.36-.52,2.65-1.91,6.62-.84,2.39-3.71,1.83-3.47.77,1.12-4.82-.1-5.82-1.1-8.2A2.18,2.18,0,0,1,283.12,344.89Z" style="fill:#263238"></path><polygon points="280.58 333.26 283.55 336.65 279.62 340.4 276.84 337.69 280.58 333.26" style="opacity:0.2"></polygon><polygon points="281.58 329.75 283.99 332.81 276.53 340.26 273.29 337.82 281.58 329.75" style="fill:#00B24B"></polygon><g id="freepik--character-2--inject-18--inject-214"><path d="M254.66,222.45,254,222l-.65-.4c-.42-.27-11.37-14.85-12.07-16.8l-.1-.28a3,3,0,0,1-.09-1.79c.43-1.67,3.95-15.89,5.55-18.7a2.08,2.08,0,0,1,2.82-.78,2.05,2.05,0,0,1,1,2.24h0c-.68,3.11-2,15.95-1.67,16.59,3.32,5.74,15.51,13.22,11.81,18.42-1.19,1.94-4,3.07-5.9,1.88h0Z" style="fill:#00B24B"></path><path d="M254.66,222.45,254,222l-.65-.4c-.42-.27-11.37-14.85-12.07-16.8l-.1-.28a3,3,0,0,1-.09-1.79c.43-1.67,3.95-15.89,5.55-18.7a2.08,2.08,0,0,1,2.82-.78,2.05,2.05,0,0,1,1,2.24h0c-.68,3.11-2,15.95-1.67,16.59,3.32,5.74,15.51,13.22,11.81,18.42-1.19,1.94-4,3.07-5.9,1.88h0Z" style="isolation:isolate;opacity:0.1"></path><path d="M251.15,183.42,250,185.55l-3.38-.15c-1.91-2.88-.27-6.15-.27-6.15h0l.34-1.32a1.8,1.8,0,0,1,1.93-1.35l1.81.15a1.82,1.82,0,0,1,1.67,1.76l0,.75A7.77,7.77,0,0,1,251.15,183.42Z" style="fill:#ff887b"></path><path d="M253.19,217.19c-2,4.46-4,21.34-8.57,37.35,4.41,4.74,22.44,7.26,25.84,5.16,1.19-3.71,5.8-16.46,11.39-33.64a4.74,4.74,0,0,0-2.3-6.29l-.17-.07c-1.26-.52-2.65-1-4-1.51a101,101,0,0,0-11.3-3.1c-1.49-.24-3.93-1.1-5.21-1.2A5.64,5.64,0,0,0,253.19,217.19Z" style="fill:#00B24B"></path><path d="M274.71,208.77c-1.19,3.18-2,7-.61,9.18-.75,1.61-5.19,4.06-10.29,1.47-2.7-1.37-1-4.37-1-4.37,3.67-.52,4.33-2.93,4.31-5.78l6.06-2.29C274.18,206.51,275.15,207.61,274.71,208.77Z" style="fill:#ff887b"></path><path d="M274.68,208.68c.44-1.17-.53-2.22-1.55-1.76l-6,2.26a7.17,7.17,0,0,1-.71,3.62,7,7,0,0,0,3.27.52,7.2,7.2,0,0,0,4-1.51A26.93,26.93,0,0,1,274.68,208.68Z" style="isolation:isolate;opacity:0.2"></path><path d="M278.67,196.2c-2-1-4.46-.57-6.49.38s-3.86,2.32-5.93,3.19a2.32,2.32,0,0,1-1.66.07,1.65,1.65,0,0,1-.95-1.7,3.7,3.7,0,0,1,.85-1.88,10,10,0,0,1,8.91-3.87C275.77,192.69,278.41,194.91,278.67,196.2Z" style="fill:#263238"></path><path d="M279.35,203.73c-1.94,4.32-2.86,7-6.23,8.3-5.08,2-10.48-2.3-10-7.21.42-4.39,3.56-10.73,9.11-10.67S281.31,199.41,279.35,203.73Z" style="fill:#ff887b"></path><path d="M272.14,192.89s2.34.9,1.91,2.6c-.73,2.93-.24,5.59.35,6.42.84,1.17,2.37,1.47,3.7,2l3.83,1.5a3.39,3.39,0,0,0,1.58-2.78,12.54,12.54,0,0,0-.39-4.66,7,7,0,0,0-4-3.92A21.45,21.45,0,0,0,272.14,192.89Z" style="fill:#263238"></path><path d="M271.07,200.84c-.23.36-.6.54-.84.39s-.24-.57,0-.92.6-.54.84-.39S271.29,200.49,271.07,200.84Z" style="fill:#263238"></path><path d="M266.67,199.25c-.23.37-.6.54-.84.39s-.24-.56,0-.92.6-.54.84-.39S266.89,198.91,266.67,199.25Z" style="fill:#263238"></path><path d="M273.28,200.23a.25.25,0,0,1-.16-.21,2,2,0,0,0-.91-1.56.26.26,0,0,1-.11-.34h0a.25.25,0,0,1,.34-.1h0a2.47,2.47,0,0,1,1.18,1.95.26.26,0,0,1-.22.28Z" style="fill:#263238"></path><path d="M265.89,196.66a.24.24,0,0,1-.13-.33.2.2,0,0,1,.09-.11,2.47,2.47,0,0,1,2.28-.27.25.25,0,0,1,.12.33h0a.24.24,0,0,1-.33.12h0a2,2,0,0,0-1.79.21A.26.26,0,0,1,265.89,196.66Z" style="fill:#263238"></path><path d="M267.45,200.11a12.89,12.89,0,0,1-3,1.92,2.1,2.1,0,0,0,1.38,1.12Z" style="fill:#ff5652"></path><path d="M277.17,203.52a12,12,0,0,1-.67,3.34c-.56,1.84-2,4.44-2.79,4.95,2.18-1.53,6.77-2.75,7.58-6.68Z" style="fill:#263238"></path><path d="M279.11,207.43a3.9,3.9,0,0,1-2.72.78c-1.22-.17-1.13-1.43-.23-2.41s2.4-1.83,3.34-1.18S280.13,206.67,279.11,207.43Z" style="fill:#ff887b"></path><path d="M264.53,204.28a38.54,38.54,0,0,1,6.58,1.26c-.92,1.15-2.26,1.94-4.71,1.31S264.53,204.28,264.53,204.28Z" style="fill:#263238"></path><path d="M267.83,206.13a5,5,0,0,0-2.85,0,2.83,2.83,0,0,0,1.43.77,5,5,0,0,0,2.83,0A2.75,2.75,0,0,0,267.83,206.13Z" style="fill:#ff5652"></path><path d="M264.76,204.3a.91.91,0,0,0,.57.82,27.33,27.33,0,0,0,4.31.73,1.43,1.43,0,0,0,1.26-.36A45.9,45.9,0,0,0,264.76,204.3Z" style="fill:#fff"></path></g><path d="M282.72,223.17l.33,1.14.36,1.19c.25.79.51,1.58.79,2.38.54,1.58,1.14,3.16,1.75,4.68s1.28,3,2,4.48a40.87,40.87,0,0,0,2.4,4.09l-.22-.26a11.2,11.2,0,0,0,2,1.81,32.31,32.31,0,0,0,2.68,1.89c.94.61,1.89,1.24,2.86,1.86s2,1.24,2.94,1.86l0,0a2,2,0,0,1-1.45,3.57,36.52,36.52,0,0,1-3.57-.9q-1.77-.52-3.51-1.2a36.42,36.42,0,0,1-3.48-1.59,15.64,15.64,0,0,1-3.61-2.53l-.09-.08-.13-.18a38.3,38.3,0,0,1-3.33-4.76,51.88,51.88,0,0,1-2.61-5c-.78-1.69-1.47-3.42-2.09-5.16-.3-.88-.59-1.76-.86-2.65s-.52-1.74-.76-2.75a3.9,3.9,0,1,1,7.53-2h0Z" style="fill:#00B24B"></path><path d="M300,248.24l4.23.1-1,5.67a5.89,5.89,0,0,1-4.68-3Z" style="fill:#ff887b"></path><path d="M307.4,251.87l-.9,1.68a1.65,1.65,0,0,1-1.91.82l-1.31-.36,1-5.67,2.46,1.28a1.65,1.65,0,0,1,.71,2.24Z" style="fill:#ff887b"></path><path d="M281.07,92.13a34.75,34.75,0,1,0-69.5.82c.16,13.92,11.35,23.21,18.49,34.15,2.21,3.39,2.12,16.16,2.12,16.16l29.48-.35s-.39-12.76,1.74-16.2C270.27,115.6,281.24,106.05,281.07,92.13Z" style="fill:#00B24B"></path><path d="M281.07,92.13a34.75,34.75,0,1,0-69.5.82c.16,13.92,11.35,23.21,18.49,34.15,2.21,3.39,2.12,16.16,2.12,16.16l29.48-.35s-.39-12.76,1.74-16.2C270.27,115.6,281.24,106.05,281.07,92.13Z" style="fill:#fff;opacity:0.5"></path><path d="M253.45,151.52l-12.58.15a8.46,8.46,0,0,1-8.55-8.35h0L261.8,143h0A8.45,8.45,0,0,1,253.45,151.52Z" style="fill:#263238"></path><path d="M247.75,158.64h0a6.9,6.9,0,0,1-7-6.81h0l13.78-.16h0A6.89,6.89,0,0,1,247.75,158.64Z" style="fill:#263238"></path><path d="M254.56,151.67h0a6.89,6.89,0,0,1-6.81,7h0a6.9,6.9,0,0,1-7-6.81h0" style="fill:#fff;opacity:0.2"></path><path d="M276.91,85.73c.15,21.87-13.38,46.76-30.28,46.88s-30.79-27.52-30.92-46.46c-.08-11.67,13.55-21.23,30.45-21.34S276.83,74.06,276.91,85.73Z" style="fill:#fff;opacity:0.30000000000000004"></path><circle cx="246.58" cy="107.24" r="19.7" transform="matrix(0.77, -0.64, 0.64, 0.77, -11.75, 181.86)" style="fill:#fff;opacity:0.4"></circle><path d="M260.3,112.12c.05,7.65-6.13,10-13.78,10.07s-13.85-2.23-13.9-9.88,6.12-9.91,13.77-10S260.24,104.48,260.3,112.12Z" style="fill:#fff;opacity:0.4"></path><rect x="239.12" y="106.57" width="1.8" height="36.64" transform="translate(-8.92 18.89) rotate(-4.43)" style="fill:#fff"></rect><rect x="235.07" y="123.9" width="36.64" height="1.8" transform="translate(112.78 369.77) rotate(-86.37)" style="fill:#fff"></rect><polygon points="246.73 121.19 238.89 113.45 240.15 112.17 246.72 118.65 253.08 112.19 254.35 113.46 246.73 121.19" style="fill:#fff"></polygon><path d="M244.28,221.05a.5.5,0,0,1-.49-.38,13.16,13.16,0,0,1,0-6,28.4,28.4,0,0,1,1-3,9.85,9.85,0,0,0,.43-8.59,15.47,15.47,0,0,1-.8-3.32,16.19,16.19,0,0,1,1.14-8.66c.3-.63.65-1.26,1-1.93,1.19-2.1,2.41-4.28,1.7-6.2a.5.5,0,0,1,.3-.64.49.49,0,0,1,.64.3c.87,2.35-.53,4.84-1.77,7-.37.66-.71,1.27-1,1.87a15.33,15.33,0,0,0-1,8.14,14.91,14.91,0,0,0,.76,3.1,14.34,14.34,0,0,1,.82,3.58,14.2,14.2,0,0,1-1.26,5.67,26.21,26.21,0,0,0-1,2.92,12.14,12.14,0,0,0,0,5.59.5.5,0,0,1-.38.6Z" style="fill:#263238"></path><path d="M248.89,185.09a.51.51,0,0,1-.5-.48l-1.26-29.48a.5.5,0,0,1,.48-.52.48.48,0,0,1,.52.48l1.26,29.48a.49.49,0,0,1-.47.52Z" style="fill:#263238"></path></g><g id="freepik--character-2--inject-214"><path d="M151.93,287.78,164.1,344.4l20.11,55.4,5.11-.6s-2.38-22.59-5.89-35.62c-3.8-14.06-6.09-18.22-6.38-21.23,0,0-.23-23.72-4.44-41Z" style="fill:#ffb573"></path><path d="M183.5,399.48l-.53-.21-.75-.24a3,3,0,0,0-1.7-.13.66.66,0,0,0-.38.35.5.5,0,0,0,.05.57,2.39,2.39,0,0,0,1.64.24c.16,0,.31,0,.46-.06a10.35,10.35,0,0,0,1.2-.27h0a.13.13,0,0,0,.09-.1A.15.15,0,0,0,183.5,399.48Zm-1,.23c-.91.16-1.9.21-2.14-.07,0,0-.09-.12,0-.28a.43.43,0,0,1,.24-.22.64.64,0,0,1,.24-.05,5.93,5.93,0,0,1,1.87.38l.32.13Z" style="fill:#00B24B"></path><path d="M183.45,399a2.92,2.92,0,0,0-.92-1.45,1,1,0,0,0-.73-.15c-.37.08-.45.27-.45.41,0,.35.38.82.87,1.2.18.14.38.28.56.4a3.14,3.14,0,0,0,.63.3h.15a.15.15,0,0,0,.05-.13S183.55,399.33,183.45,399Zm-1.86-1.18s0-.13.24-.18h.07a.7.7,0,0,1,.47.12,3,3,0,0,1,.83,1.35,2.17,2.17,0,0,1,.07.24,1.1,1.1,0,0,1-.26-.14C182.35,398.86,181.59,398.17,181.59,397.84Z" style="fill:#00B24B"></path><path d="M184,398.91l6-.63a.49.49,0,0,1,.5.33l1.59,4.73a.8.8,0,0,1-.5,1l-.17,0c-2.15.19-4.07.27-6.74.55-3.16.34-2.32.63-6,1.07-2.23.26-2.91-2.23-2-2.46,4.28-1,4.6-2.36,6.11-4.08A1.91,1.91,0,0,1,184,398.91Z" style="fill:#263238"></path><path d="M144,281.58,127.85,397l4.91,1.53s12.75-33.62,14-49.77c.06-.74.1-1.45.11-2.11a23,23,0,0,1,1.8-8.61l0-.09c3.17-7.55,8.93-22.12,11.32-33.62,0,0,11.92-5.34,3.05-22.47Z" style="fill:#ffb573"></path><path d="M144,281.58l-7.45,48.1s2.15,3.53,15.19,3.07c0,0,7.68-17.49,7.37-27.46,0,0,9.36-3.38,8.9-11.82s-3.38-11.89-3.38-11.89Z" style="fill:#263238"></path><path d="M144,281.58l-7.45,48.1s2.15,3.53,15.19,3.07c0,0,7.68-17.49,7.37-27.46,0,0,9.36-3.38,8.9-11.82s-3.38-11.89-3.38-11.89Z" style="fill:#fff;opacity:0.2"></path><path d="M156.42,293.63l5,10.56-.07.05-.33.13v.05a15.32,15.32,0,0,1-1.84.87c.12,3.81-.94,8.73-2.28,13.34-6.47-13.71-4.54-24.31-4.54-24.31Z" style="opacity:0.1"></path><path d="M164.57,281s8.57,2.85,8.66,17.83c0,4.9,3.78,31.21,3.78,31.21a29.29,29.29,0,0,1-16.17,2.06s-4.2-24-7.18-31.33c-2-4.83-3-7.66-2.46-20.46Z" style="fill:#263238"></path><path d="M164.57,281s8.57,2.85,8.66,17.83c0,4.9,3.78,31.21,3.78,31.21a29.29,29.29,0,0,1-16.17,2.06s-4.2-24-7.18-31.33c-2-4.83-3-7.66-2.46-20.46Z" style="fill:#fff;opacity:0.2"></path><path d="M129.38,266.78,126.23,264a11.63,11.63,0,0,0-1.57-2.8c-1-1.28-5.56-2.23-5.56-2.23s-.38,3.77.88,5.08a13.8,13.8,0,0,0,4.06,2.37l3.6,3.71Z" style="fill:#ffb573"></path><path d="M122.35,264.59l4-.17a1.46,1.46,0,0,0,1.42-1.69l-1.42-11.09a.8.8,0,0,0-.79-.67l-5,.21a1.46,1.46,0,0,0-1.42,1.69L120.51,263A1.81,1.81,0,0,0,122.35,264.59Z" style="fill:#00B24B"></path><path d="M122.35,264.59l4-.17a1.46,1.46,0,0,0,1.42-1.69l-1.42-11.09a.8.8,0,0,0-.79-.67l-5,.21a1.46,1.46,0,0,0-1.42,1.69L120.51,263A1.81,1.81,0,0,0,122.35,264.59Z" style="opacity:0.2"></path><path d="M122.14,264.81l4-.17a1.48,1.48,0,0,0,1.43-1.7l-1.43-11.08a.77.77,0,0,0-.79-.67l-5,.2a1.48,1.48,0,0,0-1.43,1.7l1.31,10.15A1.83,1.83,0,0,0,122.14,264.81Z" style="fill:#263238"></path><path d="M122.18,264.8l4-.16a1.51,1.51,0,0,0,1.46-1.73l-1.41-11a.83.83,0,0,0-.84-.7l-4.89.2a1.51,1.51,0,0,0-1.46,1.73l1.3,10.09A1.84,1.84,0,0,0,122.18,264.8Z" style="fill:#fff;opacity:0.5"></path><path d="M119.85,258.12l.8.2a.94.94,0,0,1,.72.87l.19,3.49a1,1,0,0,1-.86,1l-.69.07a.82.82,0,0,1-.9-.76l-.27-4A.81.81,0,0,1,119.85,258.12Z" style="fill:#ffb573"></path><path d="M120.58,255.2l1.77-.07a.69.69,0,0,0,.67-.8l-.23-1.81a.8.8,0,0,0-.81-.69l-1.83.08a.69.69,0,0,0-.67.8l.22,1.75A.87.87,0,0,0,120.58,255.2Z" style="fill:#fff;opacity:0.30000000000000004"></path><path d="M120.52,255l1.61-.06a.71.71,0,0,0,.68-.8l-.21-1.61a.86.86,0,0,0-.87-.73l-1.61.06a.69.69,0,0,0-.67.8l.2,1.61A.86.86,0,0,0,120.52,255Z" style="fill:#263238"></path><path d="M149.17,247.9s-3.51-.34-5.82,4.27-5.84,15.72-7.7,15.55S128,265,128,265s-.23.9-2.54,4.19c0,0,5.9,6.38,12,6.38,5.35,0,8.24-9.16,8.24-9.16S151,252.85,149.17,247.9Z" style="fill:#263238"></path><path d="M149.17,247.9s-3.51-.34-5.82,4.27-5.84,15.72-7.7,15.55S128,265,128,265s-.23.9-2.54,4.19c0,0,5.9,6.38,12,6.38,5.35,0,8.24-9.16,8.24-9.16S151,252.85,149.17,247.9Z" style="isolation:isolate;opacity:0.2"></path><path d="M149.17,247.9s-3.51-.34-5.82,4.27-5.84,15.72-7.7,15.55S128,265,128,265s-.23.9-2.54,4.19c0,0,5.9,6.38,12,6.38,5.35,0,8.24-9.16,8.24-9.16S151,252.85,149.17,247.9Z" style="fill:#fff;opacity:0.7000000000000001"></path><path d="M174.19,253a63.56,63.56,0,0,0-7.57,27.36l0,1.18a4.25,4.25,0,0,1-.42.25c-.24.13-.57.3-1,.49s-.94.41-1.54.63a24.36,24.36,0,0,1-14.11.58,29.59,29.59,0,0,1-5.49-1.95s-.55-3.79-1.08-8.37c-.21-1.73-.41-3.56-.57-5.36a70.47,70.47,0,0,1-.42-8.21c.14-3.62,2.8-7.46,4.83-9.88,1.32-1.56.52-2.08,8-2.47H170a15,15,0,0,1,3.23,1.1Z" style="fill:#263238"></path><path d="M174.19,253a63.56,63.56,0,0,0-7.57,27.36l0,1.18a4.25,4.25,0,0,1-.42.25c-.24.13-.57.3-1,.49s-.94.41-1.54.63a24.36,24.36,0,0,1-14.11.58,29.59,29.59,0,0,1-5.49-1.95s-.55-3.79-1.08-8.37c-.21-1.73-.41-3.56-.57-5.36a70.47,70.47,0,0,1-.42-8.21c.14-3.62,2.8-7.46,4.83-9.88,1.32-1.56.52-2.08,8-2.47H170a15,15,0,0,1,3.23,1.1Z" style="fill:#fff;opacity:0.7000000000000001"></path><path d="M162.79,246.71a.77.77,0,0,0,.74.58h1c-1,1.7-2.58,5.71-8.34,5.7-3.88,0-3.3-4-1.85-5.7h1.17c2-1,2-3.12,1.68-5.15l6.36-4.66C162.89,239.92,162.09,244,162.79,246.71Z" style="fill:#ffb573"></path><path d="M161,239.4l-3.78,2.75a9.46,9.46,0,0,1,.17,1.76c1.35-.1,3.46-1.14,3.71-2.53A5.73,5.73,0,0,0,161,239.4Z" style="isolation:isolate;opacity:0.2"></path><path d="M167.14,233c-2.14,4.81-2.94,6.89-6.37,8.49-5.16,2.41-10.61-1.27-10-6.63.59-4.82,4-11.88,9.54-12A7.19,7.19,0,0,1,167.14,233Z" style="fill:#ffb573"></path><path d="M155.58,231.07a11.33,11.33,0,0,1-2.39,2,1.85,1.85,0,0,0,1.33.81Z" style="fill:#d58745"></path><path d="M161.73,230.32h.11A.21.21,0,0,0,162,230h0a2.45,2.45,0,0,0-1.67-1.51.2.2,0,0,0-.24.17.2.2,0,0,0,.16.24,2,2,0,0,1,1.36,1.26A.21.21,0,0,0,161.73,230.32Z" style="fill:#2e353a"></path><path d="M153.21,227.21a.12.12,0,0,0,.1,0,2.05,2.05,0,0,1,1.85.18.21.21,0,0,0,.29,0h0a.21.21,0,0,0,0-.29,2.44,2.44,0,0,0-2.24-.24.21.21,0,0,0-.14.26.19.19,0,0,0,.18.14Z" style="fill:#2e353a"></path><path d="M158.66,231.47c-.15.39-.49.64-.75.54s-.36-.5-.2-.9.48-.64.74-.55S158.8,231.06,158.66,231.47Z" style="fill:#2e353a"></path><path d="M154.12,229.77c-.15.4-.48.65-.74.55s-.36-.5-.21-.9.48-.64.75-.55S154.27,229.37,154.12,229.77Z" style="fill:#2e353a"></path><path d="M154,228.94l-.86-.64S153.38,229.24,154,228.94Z" style="fill:#2e353a"></path><path d="M158.56,230.63l-.86-.64S157.91,230.93,158.56,230.63Z" style="fill:#2e353a"></path><path d="M153.08,236a31.18,31.18,0,0,1,5.78,1,3.46,3.46,0,0,1-4.1,1.45,2,2,0,0,1-1.72-2.26A1.16,1.16,0,0,1,153.08,236Z" style="fill:#2e353a"></path><path d="M156,237.62a4.07,4.07,0,0,0-2.49.07,2.32,2.32,0,0,0,1.26.69,4,4,0,0,0,2.48-.06A2.34,2.34,0,0,0,156,237.62Z" style="fill:#892b29"></path><path d="M153.28,236a.91.91,0,0,0,.51.78,23.24,23.24,0,0,0,3.79.55,1.26,1.26,0,0,0,1.09-.4A35.11,35.11,0,0,0,153.28,236Z" style="fill:#fff"></path><path d="M127.34,396.46l-.18-.2-.22-.22a5.31,5.31,0,0,0-.59-.52,3,3,0,0,0-1.5-.81.64.64,0,0,0-.49.17.49.49,0,0,0-.19.53c.13.35.76.68,1.41.9a3.28,3.28,0,0,0,.45.11,7,7,0,0,0,1.19.26h0c.06,0,.11,0,.12-.07A.14.14,0,0,0,127.34,396.46Zm-1-.2c-.9-.22-1.83-.58-1.94-.93,0-.06,0-.14.11-.26a.36.36,0,0,1,.31-.1,1.23,1.23,0,0,1,.25,0,5.55,5.55,0,0,1,1.53,1.11,2.06,2.06,0,0,1,.26.25Z" style="fill:#00B24B"></path><path d="M127.23,394.31a1,1,0,0,0-.62-.43c-.35-.08-.51.06-.57.2-.16.29,0,.89.31,1.44a6.59,6.59,0,0,0,.36.59,3,3,0,0,0,.44.54l0,0h0a.08.08,0,0,0,.07,0,.12.12,0,0,0,.08-.1,3.5,3.5,0,0,0,.09-.58A2.79,2.79,0,0,0,127.23,394.31Zm-.07,1.95L127,396c-.45-.62-.85-1.55-.72-1.86,0,0,.06-.11.29-.06l.07,0a.65.65,0,0,1,.37.3,2.88,2.88,0,0,1,.21,1.56A2,2,0,0,1,127.16,396.26Z" style="fill:#00B24B"></path><path d="M128,396.12l5.69,1.86a.48.48,0,0,1,.33.5l-.48,5a.81.81,0,0,1-.87.73l-.17,0c-2-.71-3.83-1.42-6.38-2.25-3-1-2.37-.37-5.94-1.48-2.14-.67-1.74-3.22-.79-3.05,4.31.83,5.15-.28,7.23-1.24A2,2,0,0,1,128,396.12Z" style="fill:#263238"></path><path d="M165,236.7s.45-3.14-.74-4.67-4.45-3.67-5.16-8.2c0,0-3.18,3.31-5.93,3.38s3.61-7.21,6.83-5.91c0,0,9.64-1.56,10.62,7.67C171.4,236,165,236.7,165,236.7Z" style="fill:#2e353a"></path><path d="M162,235.51s-4.8-3-7.95-3.25-3,.23-3,.23a7.29,7.29,0,0,0,4.06,9.67s5-.14,6.89-1.9C162,240.26,161.16,238.62,162,235.51Z" style="fill:#263238"></path><path d="M162,235.51s-4.8-3-7.95-3.25-3,.23-3,.23a7.29,7.29,0,0,0,4.06,9.67s5-.14,6.89-1.9C162,240.26,161.16,238.62,162,235.51Z" style="fill:#fff;opacity:0.6000000000000001"></path><path d="M161.1,236.23s-5.13-2.85-7.29-2.88a5.83,5.83,0,0,0-3,.56,8.42,8.42,0,0,0-.15,1.72s1.76-1.44,10.39,1.68Z" style="fill:#fff;opacity:0.6000000000000001"></path><path d="M161,237.83s-7.46-2.64-10.18-1.13a8.41,8.41,0,0,0,1.34,3s2.56-1.4,8.93-.66Z" style="fill:#fff;opacity:0.6000000000000001"></path><path d="M161.27,239.4s-7.07-.45-8.08,1.08l1.19.88a14.91,14.91,0,0,0,7-1.49Z" style="fill:#fff;opacity:0.6000000000000001"></path><path d="M161.65,240.52c3.87-.7,4.32-3.87,4.23-5.7a.67.67,0,0,0-.35-.62c-1-.51-3.69,1.16-4,1.35l.17.27c.79-.49,3-1.7,3.67-1.34a.37.37,0,0,1,.18.35c.08,1.73-.33,4.72-4,5.37Z" style="fill:#263238"></path><path d="M166.85,237.37a3.82,3.82,0,0,1-2.53,1.48c-1.34.18-1.82-1.06-1.29-2.23s1.75-2.4,3-2a1.72,1.72,0,0,1,1.13,2.18A1.77,1.77,0,0,1,166.85,237.37Z" style="fill:#ffb573"></path><path d="M159.58,222.41s-2.1,2.13,1.81,8.13c3.19,4.92,2.18,7.29,2.18,7.29s4.19-2.52,1-6.54C162.76,229,160.85,227.67,159.58,222.41Z" style="fill:#2e353a"></path><path d="M168.16,276.29l-3.73.76a2.15,2.15,0,0,0-.93.43l-2.71,2.16a2.16,2.16,0,0,1-2.09.34l-2.3-.82a7.35,7.35,0,0,1-1.29-2.87,29.88,29.88,0,0,1,2.84-1.68s3.16-1.13,3.87-.52l.41.35,5-1.7Z" style="fill:#ffb573"></path><path d="M183.89,269.84a4.15,4.15,0,0,1-3,5l-2.14.57-12.4,2.43-1.59-4.49,8.7-4.3a1.55,1.55,0,0,0,.93-2.07s-4.25-8.8-6.17-13.87a13.36,13.36,0,0,1-.88-4.64h0a13.47,13.47,0,0,1,2.95-.52c2.22-.12,3.57.4,5.65,3.12C177.73,253.41,182.72,265.26,183.89,269.84Z" style="fill:#263238"></path><path d="M183.89,269.84a4.15,4.15,0,0,1-3,5l-2.14.57-12.4,2.43-1.59-4.49,8.7-4.3a1.55,1.55,0,0,0,.93-2.07s-4.25-8.8-6.17-13.87a13.36,13.36,0,0,1-.88-4.64h0a13.47,13.47,0,0,1,2.95-.52c2.22-.12,3.57.4,5.65,3.12C177.73,253.41,182.72,265.26,183.89,269.84Z" style="fill:#fff;opacity:0.7000000000000001"></path><path d="M161.8,272a23.79,23.79,0,0,0,1,6.73,4.65,4.65,0,0,0,2.41,2.87,24.79,24.79,0,0,1-13.25,1.67,34.67,34.67,0,0,1-7.1-1.78l-.69-1.22c-1.39-1.9-.95-5.71,1.05-8.57l-.53.3S150.9,272.36,161.8,272Z" style="fill:#263238"></path><g style="opacity:0.8"><path d="M161.8,272a23.79,23.79,0,0,0,1,6.73,4.65,4.65,0,0,0,2.41,2.87,24.79,24.79,0,0,1-13.25,1.67,34.67,34.67,0,0,1-7.1-1.78l-.69-1.22c-1.39-1.9-.95-5.71,1.05-8.57l-.53.3S150.9,272.36,161.8,272Z" style="fill:#fff"></path></g></g><g id="freepik--character-1--inject-214"><path d="M77.92,270.34a1.85,1.85,0,0,1-1.82-2l1.52-20.53c.12-1.29.49-3.24.49-3.24-3,.33-8.29,1.53-10,7.17C66.23,257.6,66,269.31,66.31,275c.15,2.72,2.12,6.31,6.89,5.6Z" style="fill:#263238"></path><g style="opacity:0.6000000000000001"><path d="M77.92,270.34a1.85,1.85,0,0,1-1.82-2l1.52-20.53c.12-1.29.49-3.24.49-3.24-3,.33-8.29,1.53-10,7.17C66.23,257.6,66,269.31,66.31,275c.15,2.72,2.12,6.31,6.89,5.6Z" style="fill:#fff"></path></g><path d="M72.05,257.42l1.16,14,1.57-.12S72.12,257.9,72.05,257.42Z" style="isolation:isolate;opacity:0.2"></path><path d="M71.36,250.75c.89,14.65,5.53,23,4.56,34.69l27.51,1c.95-21.53,6-38.94,3.48-39.45l-16.26-4.19-14.54,2.1A5.58,5.58,0,0,0,71.36,250.75Z" style="fill:#2e353a"></path><path d="M71.36,250.75c.89,14.65,5.53,23,4.56,34.69l27.51,1c.95-21.53,6-38.94,3.48-39.45l-16.26-4.19-14.54,2.1A5.58,5.58,0,0,0,71.36,250.75Z" style="fill:#fff;opacity:0.6000000000000001"></path><path d="M95.22,248.45a16.33,16.33,0,0,1-8.73,3.43h0l-.12-.06a4.68,4.68,0,0,1-.69-7.68c2-1.69,2-5.13,1.6-7.47l9-4.75c-.13,1.32-.45,3.28-.61,5.31a23,23,0,0,0,0,4.06,6.72,6.72,0,0,0,.64,2.55A3.66,3.66,0,0,1,95.22,248.45Z" style="fill:#ce7a63"></path><path d="M87.47,240.47c3.81-.42,6.63-3,8.25-4.38l-8.27.32A23,23,0,0,1,87.47,240.47Z" style="isolation:isolate;opacity:0.2"></path><path d="M82.93,233.24c.86,5.28,7.11,8.18,11.34,4.49,2.45-2.13,2.88-4.71,3.4-8.75.08-.61.16-1.25.25-1.94a7.24,7.24,0,0,0-.26-3.17,6.68,6.68,0,0,0-.52-1.23,7.17,7.17,0,0,0-8.49-3.46C83.4,220.83,82.14,228.48,82.93,233.24Z" style="fill:#ce7a63"></path><path d="M70.91,347.45c-1.1-16,6.56-56.3,6.56-56.3l20.39,1.71s-13.3,27-14.82,53.39Z" style="fill:#ce7a63"></path><path d="M82.89,343.3c5,24.16.42,66.67.42,66.67l-6.06.34S75.06,367.12,71,346Z" style="fill:#ce7a63"></path><path d="M75.91,410.13c-3.67,2.34-4.1,2.41-8.25,3.48-.92.24-.45,2.41,1.71,2.32,3.56-.13,3.25-.24,6.3-.36,2.59-.1,6.36-.15,8.43-.2h.07a.86.86,0,0,0,.74-1l-.77-4.66a.4.4,0,0,0-.42-.34l-6.52.28A2.51,2.51,0,0,0,75.91,410.13Z" style="fill:#263238"></path><path d="M76.27,410.18a.11.11,0,0,0,.08-.1.12.12,0,0,0-.07-.13c-.24-.11-2.4-1.08-3-.71a.42.42,0,0,0-.2.34h0a.73.73,0,0,0,.26.6c.6.49,2.1.22,2.94,0Zm-2.84-.76a5.31,5.31,0,0,1,2.41.61,3.4,3.4,0,0,1-2.36,0,.46.46,0,0,1-.17-.4.16.16,0,0,1,.08-.13Z" style="fill:#00B24B"></path><path d="M76.27,410.18h0a.12.12,0,0,0,0-.12,3.47,3.47,0,0,0-.89-2,1,1,0,0,0-.7-.19h0c-.34.05-.44.23-.45.37-.08.62,1.23,1.68,1.87,1.95A.13.13,0,0,0,76.27,410.18Zm-1.61-2h.13a.67.67,0,0,1,.51.14,2.94,2.94,0,0,1,.77,1.59c-.67-.36-1.56-1.21-1.52-1.58a.16.16,0,0,1,.11-.12Z" style="fill:#00B24B"></path><path d="M90.72,319.6c-.3,2.23-.56,4.56-.8,6.94-2.45-5.39-2.27-10.35-.7-12.22Z" style="isolation:isolate;opacity:0.2"></path><path d="M88.68,226.87c-.28,0-.53.31-.56.73s.13.78.44.81.56-.31.59-.73S89,226.89,88.68,226.87Z" style="fill:#263238"></path><path d="M83.91,226.66c-.28,0-.52.3-.56.72s.17.79.45.81.53-.3.56-.72S84.18,226.68,83.91,226.66Z" style="fill:#263238"></path><path d="M85.45,231.52a2.43,2.43,0,0,1-1.92-.76,14.91,14.91,0,0,0,2.62-3.2Z" style="fill:#ba4d3c"></path><path d="M86,233.79a.11.11,0,0,1-.12-.09.12.12,0,0,1,.08-.15l0,0a5.37,5.37,0,0,1,2.92-.06.13.13,0,0,1,.09.15.13.13,0,0,1-.16.09,5,5,0,0,0-2.77.06l0,0Z" style="fill:#263238"></path><path d="M89.8,226.11a2,2,0,0,0-1.54-1h-.08a.24.24,0,0,1-.21-.28.25.25,0,0,1,.28-.21,2.46,2.46,0,0,1,1.94,1.17.24.24,0,0,1-.07.34.16.16,0,0,1-.12,0A.26.26,0,0,1,89.8,226.11Z" style="fill:#263238"></path><path d="M83,225.87h0a.25.25,0,0,1,0-.35,2.4,2.4,0,0,1,2-1h0a.25.25,0,0,1,.23.26v0a.23.23,0,0,1-.26.21,2,2,0,0,0-1.59.84.23.23,0,0,1-.21.1A.35.35,0,0,1,83,225.87Z" style="fill:#263238"></path><path d="M70.38,354.09c.21,18.67,3.89,37.44,3.65,44.2a3.85,3.85,0,0,0,3,3.88c1.86.43,3.32-.16,4.73,0a4.13,4.13,0,0,0,4.58-3.6V356.92l4.41-37.62s10.51-22.83,5-33.86c-6.58-.8-19.8,0-19.8,0S69.87,309.35,70.38,354.09Z" style="fill:#263238"></path><path d="M70.38,354.09c.21,18.67,3.89,37.44,3.65,44.2a3.85,3.85,0,0,0,3,3.88c1.86.43,3.32-.16,4.73,0a4.13,4.13,0,0,0,4.58-3.6V356.92l4.41-37.62s10.51-22.83,5-33.86c-6.58-.8-19.8,0-19.8,0S69.87,309.35,70.38,354.09Z" style="fill:#fff;opacity:0.2"></path><g style="isolation:isolate;opacity:0.2"><path d="M86.91,298.85s-3.32,27.69.6,46.57l4-26.17v-6.6Z"></path></g><path d="M104.2,353.63c5.85,23.18,8.63,55,8.63,55L107,410.12s-5.9-31.63-13.92-51.61Z" style="fill:#ce7a63"></path><path d="M105.59,410.19c-3.15,3-3.56,3.15-7.44,5-.85.41,0,2.45,2.13,1.95,3.47-.8,3.15-.85,6.11-1.55,2.53-.6,6.22-1.36,8.24-1.8l.06,0a.86.86,0,0,0,.55-1.09l-1.64-4.43a.41.41,0,0,0-.48-.25l-6.35,1.52A2.51,2.51,0,0,0,105.59,410.19Z" style="fill:#263238"></path><path d="M106,410.17a.13.13,0,0,0,.06-.11.13.13,0,0,0-.1-.11c-.25-.07-2.56-.61-3.1-.13a.44.44,0,0,0-.13.37h0a.73.73,0,0,0,.37.54c.68.37,2.1-.18,2.89-.54ZM103,410a5.17,5.17,0,0,1,2.47.14,3.34,3.34,0,0,1-2.32.39.43.43,0,0,1-.24-.35.15.15,0,0,1,0-.14Z" style="fill:#00B24B"></path><path d="M106,410.17h0a.11.11,0,0,0,0-.12,3.52,3.52,0,0,0-1.25-1.78.89.89,0,0,0-.73-.05h0c-.32.11-.38.3-.37.44,0,.62,1.53,1.42,2.21,1.56A.1.1,0,0,0,106,410.17Zm-2-1.68.13,0h0a.66.66,0,0,1,.53,0,3,3,0,0,1,1,1.42c-.73-.23-1.76-.9-1.79-1.26,0,0,0-.09.09-.14Z" style="fill:#00B24B"></path><path d="M96.87,319.6c-.3,2.23-.56,4.56-.8,6.94-2.45-5.39-2.27-10.35-.7-12.22Z" style="isolation:isolate;opacity:0.2"></path><path d="M91.34,356.23c3.28,18.38,9.44,36,10.49,42.69a3.85,3.85,0,0,0,3.66,3.25c1.91.07,3.23-.79,4.64-.9a4.14,4.14,0,0,0,3.82-4.41L106,356l0-20.88,1.23-26.24s1.3-9.45-4-23.88c-6.61.47-17.32.62-17.32.62S85.67,324.29,91.34,356.23Z" style="fill:#263238"></path><path d="M91.34,356.23c3.28,18.38,9.44,36,10.49,42.69a3.85,3.85,0,0,0,3.66,3.25c1.91.07,3.23-.79,4.64-.9a4.14,4.14,0,0,0,3.82-4.41L106,356l0-20.88,1.23-26.24s1.3-9.45-4-23.88c-6.61.47-17.32.62-17.32.62S85.67,324.29,91.34,356.23Z" style="fill:#fff;opacity:0.2"></path><path d="M92.47,217.7a29.78,29.78,0,0,0-5.21.7,5.62,5.62,0,0,0-2.19.77,2.17,2.17,0,0,0-.91,2c.2,1.87,4.52,1.16,5.77,1.38,1,.18,2,.54,3,.79,2.13.52,2.7,3.79,2.72,4.68,0,1,.07,2.1.11,3.15a40.45,40.45,0,0,1-.4,4.25,6.24,6.24,0,0,0,0,1.22c.1,1.1,3.92-2,4.45-4.71.25-1.31,2.09-10.78-1.83-11.33C98,220.6,97,217.66,92.47,217.7Z" style="fill:#263238"></path><path d="M98.08,228.68c-1.71,0-2.79,2.13-3,3.59-.25,1.63.82,3,2.41,2.3a4.86,4.86,0,0,0,2.6-2.74A2.23,2.23,0,0,0,98.08,228.68Z" style="fill:#ce7a63"></path><path d="M101.74,251.56c.68-6,9.48-6.16,10.23-.17,0,.06,0,.12,0,.18.64,6.13-2.24,21-3.67,26.49a5,5,0,0,1-6,3.56l-17.16-4.27,1.35-8.23,11.34,2.13a1.86,1.86,0,0,0,2.18-1.64Z" style="fill:#2e353a"></path><path d="M101.74,251.56c.68-6,9.48-6.16,10.23-.17,0,.06,0,.12,0,.18.64,6.13-2.24,21-3.67,26.49a5,5,0,0,1-6,3.56l-17.16-4.27,1.35-8.23,11.34,2.13a1.86,1.86,0,0,0,2.18-1.64Z" style="fill:#fff;opacity:0.6000000000000001"></path><path d="M87.3,275.77l-4.36-1.36a2.53,2.53,0,0,0-1.22-.08l-4.09.7a2.62,2.62,0,0,1-2.4-.85L73.3,272a8.69,8.69,0,0,1,.3-3.76,36.77,36.77,0,0,1,4-.13s4,.65,4.36,1.7l.23.6,6.21,1.09Z" style="fill:#ce7a63"></path><path d="M89.23,270.24l4.56-.37a2.67,2.67,0,0,0,1.16-.39l2.37-1a3.94,3.94,0,0,1,3-.26l3.56,1.15c1.45.28.45,3.5.45,3.5-.14.57-4.09,1.33-6.24,1.18L96,273.28l-6.16,1.32Z" style="fill:#ce7a63"></path><polygon points="88.53 270.1 93.14 269.37 94.07 275.32 89.61 276.25 88.53 270.1" style="fill:#263238"></polygon><g style="opacity:0.5"><polygon points="88.53 270.1 93.14 269.37 94.07 275.32 89.61 276.25 88.53 270.1" style="fill:#fff"></polygon></g><path d="M67.79,276.92a5,5,0,0,0,5.88,3.78l15-3.16a2.6,2.6,0,0,0,2-2.87l-.42-3.26a2.6,2.6,0,0,0-3-2.25l-8.78,1.33C67.31,271.34,67.79,276.92,67.79,276.92Z" style="fill:#2e353a"></path><g style="opacity:0.6000000000000001"><path d="M67.79,276.92a5,5,0,0,0,5.88,3.78l15-3.16a2.6,2.6,0,0,0,2-2.87l-.42-3.26a2.6,2.6,0,0,0-3-2.25l-8.78,1.33C67.31,271.34,67.79,276.92,67.79,276.92Z" style="fill:#fff"></path></g><path d="M87.34,222.48c2.13-.48,2.74,1.53,3,2.09a8.6,8.6,0,0,1,.43,1.33c.82,2.89,3.13,2.71,3.44,2.37-.18-.35-.78-.66-1-1a2.55,2.55,0,0,1-.1-1.53A4.86,4.86,0,0,0,93,224a5.77,5.77,0,0,0-.68-1.47,4.32,4.32,0,0,0-1.14-1.27,3,3,0,0,0-2.36-.44C88,221,87.72,221.75,87.34,222.48Z" style="fill:#263238"></path></g></svg>